<?xml version="1.0" encoding="utf-8"?>
<!-- Generator: Adobe Illustrator 24.0.3, SVG Export Plug-In . SVG Version: 6.00 Build 0)  -->
<svg version="1.1" id="Layer_1" xmlns="http://www.w3.org/2000/svg" xmlns:xlink="http://www.w3.org/1999/xlink" x="0px" y="0px"
	 viewBox="0 0 416.72 207.88" style="enable-background:new 0 0 416.72 207.88;" xml:space="preserve">
<style type="text/css">
	.st0{fill:#FFFFFF;}
	.st1{fill:#AA182C;}
</style>
<g>
	<g>
		<path d="M402.61,207.88H14.11c-7.74,0-14.08-6.34-14.08-14.08v-26.48c0-7.74,6.34-14.08,14.08-14.08h388.5
			c7.74,0,14.08,6.34,14.08,14.08v26.48C416.69,201.55,410.36,207.88,402.61,207.88z"/>
		<g>
			<path class="st0" d="M39.78,171.37c0.14-0.26,0.34-0.46,0.6-0.57c0.23-0.11,0.52-0.06,0.83-0.06c0.52,0,0.52,0,1.03,0
				c0.46,0,0.78,0.11,1.03,0.43c0.26,0.26,0.55,0.6,0.55,1.06c0,0.52,0,0.52,0,1.06s-0.11,0.55-0.11,1.09s-0.06,0.55-0.06,1.09
				c0,0.52,0.03,0.52,0.03,1.06s0.03,0.55,0.03,1.09c0,0.46-0.06,0.89-0.32,1.18c-0.26,0.29-0.69,0.49-1.15,0.49
				c-0.43,0-0.43-0.11-0.89-0.11c-0.37,0-0.66-0.09-0.89-0.17c-0.34-0.09-0.6-0.17-0.8-0.37s-0.37-0.46-0.55-0.75
				c-0.14-0.23-0.2-0.57-0.4-0.83c-0.17-0.29-0.46-0.49-0.69-0.72c-0.26-0.23-0.55-0.37-0.83-0.55c-0.26-0.2-0.55-0.34-0.86-0.49
				c-0.29-0.14-0.55-0.34-0.89-0.46c-0.29-0.09-0.6-0.2-0.95-0.26c-0.32-0.09-0.63-0.11-0.98-0.17c-0.32-0.06-0.63-0.03-0.98-0.06
				c-0.32-0.03-0.66-0.11-1.01-0.11c-0.32,0-0.66,0.03-1.01,0.06c-0.34,0.03-0.69,0.06-1.01,0.14c-0.34,0.06-0.66,0.14-1.01,0.26
				c-0.32,0.09-0.6,0.29-0.92,0.4c-0.32,0.14-0.72,0.09-1.03,0.26c-0.29,0.17-0.55,0.4-0.83,0.6c-0.26,0.2-0.46,0.52-0.69,0.75
				c-0.23,0.26-0.57,0.43-0.78,0.69c-0.17,0.29-0.23,0.66-0.37,0.98c-0.11,0.32-0.26,0.6-0.32,0.95c-0.06,0.34-0.23,0.66-0.23,1.03
				c0,0.34,0.11,0.66,0.17,0.98c0.06,0.34,0.26,0.63,0.34,0.95c0.11,0.32,0.26,0.6,0.43,0.89c0.17,0.26,0.23,0.63,0.46,0.89
				c0.2,0.23,0.43,0.49,0.69,0.72c0.26,0.2,0.55,0.37,0.83,0.55c0.29,0.2,0.55,0.4,0.86,0.55c0.29,0.14,0.6,0.23,0.92,0.37
				c0.32,0.11,0.63,0.17,0.95,0.26c0.32,0.09,0.66,0.09,1.01,0.14c0.32,0.06,0.63,0.14,0.98,0.17c0.32,0.03,0.66-0.03,0.98-0.03
				c0.34,0,0.69,0.14,1.01,0.11c0.34-0.03,0.66,0,0.98-0.03c0.34-0.06,0.66-0.2,0.98-0.26c0.34-0.09,0.63-0.2,0.95-0.29
				c0.32-0.11,0.63-0.23,0.92-0.34c0.32-0.14,0.66-0.17,0.95-0.32c0.32-0.14,0.55-0.4,0.8-0.57c0.29-0.17,0.6-0.32,0.86-0.49
				c0.2-0.14,0.43-0.37,0.75-0.49c0.23-0.09,0.55-0.03,0.86,0c0.26,0.03,0.52,0.06,0.8,0.23c0.49,0.23,0.69,0.4,1.12,0.66
				c0.26,0.14,0.57,0.26,0.72,0.49c0.17,0.23,0.17,0.55,0.14,0.83c-0.03,0.23-0.14,0.49-0.37,0.75c-0.23,0.23-0.43,0.49-0.69,0.72
				c-0.26,0.2-0.55,0.37-0.83,0.55c-0.26,0.2-0.55,0.4-0.83,0.57c-0.29,0.14-0.57,0.32-0.86,0.46c-0.32,0.14-0.6,0.29-0.92,0.4
				c-0.32,0.11-0.6,0.32-0.92,0.43c-0.32,0.09-0.63,0.2-0.95,0.32c-0.32,0.09-0.66,0.11-0.98,0.2c-0.34,0.06-0.69,0.03-1.01,0.09
				c-0.32,0.06-0.63,0.2-0.98,0.23c-0.32,0.06-0.66,0.11-0.98,0.14c-0.34,0.03-0.69-0.03-1.01-0.03c-0.34,0.03-0.69,0-1.01,0
				c-0.34,0-0.66-0.03-1.01-0.06c-0.34,0-0.69-0.03-1.01-0.06c-0.34-0.03-0.69-0.06-1.01-0.09c-0.34-0.06-0.69-0.11-1.01-0.17
				c-0.34-0.06-0.66-0.14-1.01-0.2c-0.32-0.09-0.66-0.09-0.98-0.2c-0.34-0.09-0.63-0.26-0.95-0.37c-0.34-0.11-0.63-0.26-0.95-0.37
				c-0.32-0.14-0.6-0.29-0.89-0.46c-0.32-0.14-0.69-0.17-0.98-0.34c-0.29-0.17-0.57-0.34-0.86-0.55c-0.26-0.2-0.49-0.49-0.75-0.69
				c-0.26-0.23-0.6-0.37-0.83-0.6c-0.23-0.23-0.43-0.52-0.63-0.78c-0.23-0.29-0.34-0.6-0.52-0.89c-0.2-0.29-0.4-0.55-0.55-0.86
				c-0.14-0.29-0.37-0.57-0.49-0.89c-0.11-0.32-0.2-0.66-0.26-0.98c-0.09-0.34,0.03-0.69,0-1.03c-0.03-0.34-0.23-0.66-0.23-1.01
				c0-0.34,0.09-0.69,0.11-1.01c0.03-0.34,0.03-0.69,0.11-1.03c0.06-0.32,0.32-0.6,0.43-0.92c0.11-0.32,0.23-0.63,0.4-0.92
				c0.14-0.32,0.11-0.69,0.32-0.98c0.17-0.29,0.43-0.52,0.66-0.78c0.2-0.29,0.43-0.55,0.66-0.78c0.23-0.23,0.49-0.46,0.75-0.66
				c0.26-0.23,0.49-0.52,0.75-0.72c0.29-0.17,0.6-0.32,0.89-0.49c0.29-0.17,0.57-0.34,0.89-0.52c0.29-0.14,0.63-0.2,0.95-0.32
				c0.32-0.14,0.6-0.29,0.92-0.4c0.32-0.11,0.63-0.26,0.95-0.37c0.34-0.09,0.63-0.26,0.98-0.34c0.32-0.06,0.66-0.11,1.01-0.17
				c0.32-0.06,0.69,0.06,1.01,0.03c0.34-0.06,0.69-0.09,1.01-0.11c0.34,0,0.69,0.03,1.03,0.03c0.32,0,0.66-0.11,0.98-0.09
				c0.34,0,0.66,0,1.01,0.03c0.32,0.03,0.66,0.03,0.98,0.09c0.34,0.06,0.66,0.17,0.95,0.26c0.34,0.06,0.69,0.09,0.98,0.17
				c0.34,0.09,0.63,0.26,0.95,0.34c0.32,0.11,0.66,0.2,0.95,0.32c0.32,0.14,0.55,0.46,0.8,0.57c0.34,0.2,0.6,0.34,0.86,0.49
				c0.52,0.34,0.78,0.23,0.78-0.09C39.64,171.89,39.69,171.6,39.78,171.37z"/>
			<path class="st0" d="M83.75,187.29c0.2,0.26,0.23,0.63,0.17,1.03c-0.03,0.32,0,0.6-0.03,0.86c-0.06,0.37-0.06,0.66-0.09,0.83
				c-0.03,0.46-0.32,0.75-0.6,0.92c-0.29,0.2-0.66,0.29-1.06,0.29c-0.03,0-0.75-0.03-1.09-0.03c-0.34-0.03-0.69,0.03-1.01,0.03
				c-0.34-0.03-0.66-0.14-0.98-0.17c-0.34-0.03-0.69-0.06-1.01-0.11c-0.34-0.06-0.66-0.11-0.98-0.23c-0.32-0.09-0.69-0.03-1.01-0.17
				c-0.32-0.14-0.6-0.29-0.92-0.46c-0.29-0.17-0.55-0.37-0.83-0.57c-0.26-0.2-0.55-0.4-0.8-0.63c-0.23-0.23-0.37-0.57-0.6-0.83
				c-0.2-0.23-0.49-0.43-0.72-0.72c-0.2-0.23-0.43-0.49-0.63-0.78s-0.34-0.57-0.57-0.8c-0.26-0.23-0.57-0.34-0.83-0.55
				c-0.29-0.17-0.49-0.49-0.8-0.63c-0.29-0.14-0.66-0.14-0.98-0.23c-0.32-0.09-0.63-0.14-0.98-0.17c-0.32-0.06-0.63-0.17-0.98-0.2
				c-0.34-0.03-0.66-0.09-0.98-0.09c-0.57,0-0.75,0.09-1.29,0.09c-0.55,0-0.92,0.26-0.92,0.78c0,0.4-0.06,1.01,0.11,1.26
				c0.11,0.2,0.4,0.34,0.89,0.46c0.26,0.09,0.57,0.2,0.98,0.26c0.32,0.03,0.63,0,1.03,0.03c0.32,0,0.63,0.03,1.01,0.03
				c0.49,0,0.89,0.06,1.15,0.32c0.26,0.29,0.4,0.66,0.4,1.15c0,0.55,0.03,0.55,0.03,1.06c0,0.43-0.2,0.8-0.49,1.09
				c-0.26,0.26-0.66,0.43-1.09,0.43c-0.49,0-0.49-0.11-0.98-0.11s-0.49,0.11-0.95,0.11c-0.49,0-0.49-0.03-0.98-0.03
				c-0.49,0-0.49-0.09-0.98-0.09c-0.49,0-0.49,0.09-0.95,0.09c-0.49,0-0.49-0.06-0.98-0.06s-0.49,0.11-0.98,0.11
				c-0.46,0-0.46-0.06-0.95-0.06c-0.49,0-0.49-0.11-0.98-0.11s-0.49,0.2-0.95,0.2c-0.49,0-0.49-0.09-0.98-0.09
				c-0.49,0-0.49-0.03-0.98-0.03c-0.46,0-0.46,0.03-0.95,0.03s-0.49-0.06-0.98-0.06c-0.49,0-0.49,0.11-0.95,0.11
				c-0.46,0-0.89-0.14-1.18-0.4c-0.29-0.26-0.29-0.72-0.29-1.15c0-0.52-0.17-0.52-0.17-1.06c0-0.49,0.17-0.92,0.43-1.18
				c0.29-0.26,0.69-0.4,1.21-0.4c0.37,0,0.72,0.06,1.03,0.06c0.4-0.03,0.72-0.14,1.03-0.17c0.43-0.06,0.8,0,1.06-0.09
				c0.43-0.17,0.72-0.43,0.83-0.72c0.11-0.29,0.09-0.66,0.09-1.06c0-0.49-0.03-0.49-0.03-0.98c0-0.49,0.06-0.49,0.06-0.98
				c0-0.52-0.11-0.52-0.11-1.01c0-0.49,0.03-0.49,0.03-0.98c0-0.49,0.11-0.49,0.11-1.01c0-0.49-0.17-0.49-0.17-0.98
				s-0.03-0.49-0.03-0.98c0-0.49,0.06-0.49,0.06-1.01c0-0.37,0-0.72-0.14-1.01c-0.11-0.26-0.29-0.49-0.75-0.63
				c-0.26-0.11-0.57-0.26-1.01-0.32c-0.29-0.03-0.66,0.11-1.06,0.09c-0.32,0-0.63-0.23-1.03-0.23c-0.49,0-0.8-0.11-1.06-0.37
				c-0.26-0.29-0.4-0.6-0.4-1.09c0-0.52-0.09-0.52-0.09-1.03c0-0.43,0.17-0.83,0.46-1.09c0.26-0.26,0.66-0.29,1.12-0.29
				c0.49,0,0.49-0.2,0.98-0.2c0.49,0,0.49,0,0.98,0c0.49,0,0.49,0.17,0.98,0.17s0.49-0.17,0.98-0.17c0.49,0,0.49,0.09,0.98,0.09
				c0.49,0,0.49,0,0.98,0c0.49,0,0.49-0.09,0.98-0.09s0.49,0.17,0.98,0.17c0.49,0,0.49,0,0.98,0c0.49,0,0.49-0.11,0.98-0.11
				c0.49,0,0.49,0.06,1.01,0.06c0.49,0,0.49,0.06,0.98,0.06s0.49,0,0.98,0c0.49,0,0.49,0,0.98,0c0.49,0,0.49-0.11,0.98-0.11
				c0.49,0,0.49-0.09,0.98-0.09c0.32,0,0.66,0.14,0.98,0.14c0.34,0,0.69-0.06,1.01-0.03c0.34,0,0.66,0.06,0.98,0.09
				c0.34,0.03,0.69,0.11,1.01,0.14c0.32,0.03,0.66,0.09,0.98,0.14c0.34,0.03,0.69-0.03,1.01,0.03c0.32,0.06,0.63,0.2,0.95,0.26
				c0.34,0.06,0.63,0.17,0.95,0.26c0.34,0.09,0.69,0.06,1.01,0.14c0.32,0.11,0.57,0.37,0.86,0.52c0.32,0.11,0.69,0.14,0.95,0.29
				c0.32,0.17,0.63,0.32,0.89,0.49c0.26,0.2,0.55,0.43,0.78,0.66c0.23,0.23,0.37,0.57,0.55,0.83c0.2,0.26,0.43,0.55,0.55,0.83
				c0.14,0.32,0.2,0.63,0.29,0.95c0.06,0.32-0.03,0.66-0.03,1.01c0,0.34,0.03,0.69-0.03,1.03c-0.09,0.32-0.14,0.66-0.29,0.98
				c-0.14,0.32-0.32,0.63-0.55,0.92c-0.2,0.26-0.46,0.49-0.72,0.72c-0.26,0.23-0.52,0.46-0.8,0.66c-0.29,0.17-0.6,0.32-0.92,0.49
				c-0.29,0.17-0.6,0.29-0.95,0.43c-0.32,0.11-0.66,0.17-0.98,0.32c-0.55,0.26-0.57,0.75-0.03,1.15c0.34,0.26,0.72,0.43,1.01,0.72
				c0.23,0.23,0.37,0.52,0.6,0.69c0.26,0.2,0.57,0.29,0.83,0.43c0.29,0.14,0.55,0.29,0.8,0.4c0.32,0.11,0.6,0.23,0.86,0.29
				c0.32,0.09,0.63,0.11,0.92,0.14c0.34,0.06,0.63,0.14,0.89,0.17C83.23,186.88,83.58,187.06,83.75,187.29z M63.99,179.59
				c0.29,0.09,0.66,0.2,1.15,0.2c0.46,0,0.46,0.06,0.92,0.06c0.46,0,0.46-0.14,0.92-0.14c0.46,0,0.46,0.14,0.89,0.14
				c0.46,0,0.46-0.14,0.92-0.14s0.46-0.06,0.92-0.06c0.34,0,0.66,0,1.01-0.03c0.34-0.03,0.69,0.06,1.03,0
				c0.34-0.09,0.66-0.2,0.98-0.32c0.34-0.11,0.66-0.23,0.92-0.37c0.32-0.2,0.66-0.34,0.86-0.6c0.2-0.29,0.23-0.66,0.23-1.01
				c0-0.37-0.14-0.66-0.34-0.95c-0.17-0.26-0.43-0.46-0.75-0.66c-0.29-0.14-0.57-0.34-0.92-0.43c-0.32-0.11-0.63-0.17-1.01-0.26
				c-0.32-0.06-0.66-0.14-1.01-0.17c-0.32-0.03-0.66-0.06-1.01-0.06c-0.46,0-0.46,0-0.92,0s-0.46,0.06-0.92,0.06
				c-0.46,0-0.46-0.06-0.89-0.06c-0.46,0-0.46,0.17-0.92,0.17c-0.46,0-0.46-0.14-0.92-0.14c-0.49,0-0.86,0.14-1.12,0.23
				c-0.78,0.23-0.72,0.63-0.72,0.72c0,0.52-0.03,0.52-0.03,1.03c0,0.52,0.06,0.52,0.06,1.03c0,0.49-0.09,0.49-0.09,1.01
				C63.24,178.96,63.24,179.36,63.99,179.59z"/>
			<path class="st0" d="M125.6,187.11c0.26,0.26,0.34,0.57,0.34,1.09c0,0.52,0.2,0.52,0.2,1.03c0,0.43-0.17,0.89-0.46,1.18
				c-0.26,0.26-0.75,0.32-1.18,0.32c-0.49,0-0.49,0-0.98,0c-0.52,0-0.52,0.06-1.01,0.06c-0.49,0-0.49,0.03-0.98,0.03
				c-0.52,0-0.52-0.2-1.01-0.2c-0.49,0-0.49,0.09-0.98,0.09c-0.49,0-0.49,0.14-1.01,0.14c-0.49,0-0.49-0.06-0.98-0.06
				c-0.49,0-0.49-0.2-1.01-0.2c-0.49,0-0.49,0.14-0.98,0.14c-0.49,0-0.49-0.03-0.98-0.03c-0.52,0-0.52,0.09-1.01,0.09
				c-0.49,0-0.49-0.17-0.98-0.17c-0.49,0-0.49,0.11-1.01,0.11c-0.49,0-0.49-0.06-0.98-0.06s-0.49,0-0.98,0
				c-0.46,0-0.89-0.03-1.18-0.29c-0.29-0.26-0.32-0.72-0.32-1.15c0-0.52-0.17-0.52-0.17-1.03c0-0.49,0.17-0.98,0.43-1.24
				c0.26-0.26,0.72-0.23,1.21-0.23c0,0,0.4,0,0.92,0c0.29,0,0.6-0.06,0.89-0.06c0.37,0,0.69-0.03,0.92-0.03
				c0.4,0,0.72-0.17,0.86-0.46c0.11-0.23,0.11-0.43-0.2-0.89c-0.14-0.2-0.23-0.63-0.43-0.95c-0.29-0.46-0.4-0.98-1.26-0.98
				c-0.52,0-0.89,0-1.41,0c-0.52,0-0.52,0.23-1.03,0.23s-0.52-0.2-1.03-0.2c-0.52,0-0.52,0-1.03,0c-0.52,0-0.52-0.03-1.03-0.03
				c-0.52,0-0.52,0-1.03,0c-0.52,0-0.52,0.2-1.03,0.2c-0.52,0-0.52-0.17-1.03-0.17c-0.86,0-1.09,0.46-1.38,0.95
				c-0.29,0.46-0.8,1.03-0.83,1.09c-0.17,0.26-0.29,0.55-0.26,0.78c0.03,0.26,0.2,0.46,0.6,0.46c0.37,0,0.66,0.06,0.98,0.06
				s0.63-0.17,0.98-0.17c0.29,0,0.6-0.03,0.98-0.03c0.49,0,0.89,0.23,1.15,0.49s0.34,0.66,0.34,1.18c0,0.52,0.03,0.52,0.03,1.03
				c0,0.43-0.09,0.89-0.37,1.15s-0.72,0.43-1.15,0.43c-0.52,0-0.52,0.03-1.03,0.03c-0.52,0-0.52-0.09-1.03-0.09s-0.52,0-1.03,0
				c-0.52,0-0.52-0.11-1.03-0.11c-0.49,0-0.49-0.03-1.01-0.03s-0.52,0.09-1.03,0.09c-0.52,0-0.52-0.09-1.03-0.09
				c-0.52,0-0.52-0.03-1.03-0.03c-0.49,0-0.49,0.17-1.01,0.17c-0.52,0-0.52,0-1.03,0c-0.52,0-0.52-0.11-1.03-0.11
				s-0.52,0.11-1.01,0.11c-0.46,0-0.89-0.11-1.18-0.37c-0.29-0.26-0.34-0.72-0.34-1.15c0-0.52-0.11-0.52-0.11-1.03
				c0-0.49,0.26-0.86,0.52-1.12c0.26-0.26,0.6-0.37,1.09-0.37c0.37,0,0.69-0.03,1.01-0.06c0.34-0.03,0.69,0.03,0.98-0.03
				c0.34-0.09,0.57-0.4,0.83-0.57c0.26-0.14,0.49-0.34,0.72-0.63c0.2-0.23,0.37-0.49,0.57-0.78c0.29-0.4,0.26-0.43,0.55-0.83
				c0.26-0.4,0.4-0.32,0.69-0.72c0.26-0.4,0.32-0.37,0.57-0.78c0.29-0.4,0.2-0.46,0.49-0.86c0.26-0.4,0.23-0.43,0.52-0.83
				c0.26-0.4,0.34-0.34,0.63-0.75c0.26-0.4,0.09-0.55,0.34-0.95c0.29-0.4,0.46-0.29,0.72-0.69c0.29-0.4,0.09-0.52,0.37-0.92
				c0.26-0.43,0.43-0.32,0.69-0.72c0.29-0.4,0.2-0.46,0.46-0.86c0.29-0.4,0.23-0.43,0.52-0.83c0.26-0.43,0.4-0.32,0.66-0.75
				c0.29-0.4,0.2-0.43,0.49-0.83c0.26-0.43,0.32-0.4,0.57-0.8c0.29-0.4,0.46-0.57,0.72-0.98c0.26-0.4,0.6-0.86,1.58-0.86
				c0.57,0,0.57,0.03,1.12,0.03c0.57,0,0.57,0,1.12,0c0.55,0,0.55-0.09,1.12-0.09c0.46,0,0.75,0.06,1.01,0.26
				c0.23,0.14,0.4,0.43,0.69,0.83c0.29,0.4,0.26,0.43,0.55,0.83c0.29,0.4,0.4,0.32,0.69,0.72c0.29,0.43,0.34,0.37,0.66,0.78
				c0.29,0.4,0.26,0.43,0.55,0.83c0.29,0.4,0.17,0.49,0.46,0.89c0.29,0.4,0.37,0.34,0.66,0.75c0.29,0.43,0.26,0.43,0.55,0.83
				c0.29,0.4,0.32,0.4,0.6,0.8c0.29,0.4,0.2,0.46,0.49,0.86c0.32,0.4,0.37,0.34,0.66,0.78c0.29,0.4,0.26,0.4,0.55,0.83
				c0.29,0.4,0.32,0.37,0.6,0.78c0.29,0.4,0.34,0.37,0.63,0.78c0.29,0.43,0.34,0.8,0.66,1.21c0.29,0.4,0.63,0.92,0.95,1.32
				c0.17,0.26,0.43,0.49,0.63,0.72c0.2,0.23,0.52,0.34,0.8,0.52c0.23,0.14,0.52,0.29,0.83,0.4c0.26,0.09,0.55,0.2,0.89,0.26
				c0.29,0.03,0.6,0.06,0.95,0.06C125,186.65,125.34,186.86,125.6,187.11z M105.15,180.08c0.55-0.06,0.55,0.11,1.06,0.11
				c0.55,0,0.55-0.09,1.06-0.09c0.55,0,0.66,0.03,1.18,0.03c0.55,0,0.57-0.49,0.37-0.75c-0.17-0.23-0.4-0.46-0.57-0.69
				c-0.2-0.26-0.4-0.49-0.57-0.72c-0.2-0.26-0.2-0.63-0.34-0.86c-0.32-0.49-0.8-0.34-1.03,0c-0.2,0.29-0.66,0.86-0.89,1.18
				c-0.2,0.32-0.57,0.78-0.8,1.06C104.26,179.85,104.6,180.13,105.15,180.08z"/>
			<path class="st0" d="M147.57,190.79c-0.46,0.03-0.49,0.06-0.95,0.06c-0.49,0-0.49-0.11-0.98-0.11c-0.49,0-0.49-0.06-0.95-0.06
				c-0.49,0-0.49-0.03-0.98-0.03c-0.49,0-0.49,0.09-0.98,0.09c-0.46,0-0.46,0.11-0.95,0.11c-0.49,0-0.49-0.14-0.98-0.14
				c-0.49,0-0.49-0.03-0.95-0.03c-0.49,0-0.49,0.06-0.98,0.06c-0.49,0-0.49,0-0.95,0c-0.49,0-0.49-0.06-0.98-0.06
				c-0.49,0-0.49,0.03-0.95,0.03c-0.49,0-0.49-0.03-0.98-0.03c-0.49,0-0.49,0.06-0.98,0.06c-0.43,0-0.86-0.06-1.15-0.34
				c-0.26-0.26-0.32-0.69-0.32-1.12c0-0.52-0.14-0.52-0.14-1.03c0-0.52,0.26-0.83,0.55-1.09c0.26-0.26,0.57-0.57,1.06-0.57
				c0.4,0,0.75,0,1.06-0.03c0.37-0.03,0.75,0.14,1.03,0.11c0.43-0.06,0.78-0.17,1.03-0.26c0.43-0.17,0.75-0.4,0.86-0.66
				c0.14-0.29,0.03-0.69,0.03-1.09c0-0.49-0.09-0.49-0.09-0.98c0-0.49,0.11-0.49,0.11-0.98c0-0.52-0.03-0.52-0.03-1.01
				s0.06-0.49,0.06-0.98c0-0.49-0.06-0.49-0.06-0.98c0-0.52,0.09-0.52,0.09-1.01c0-0.49-0.11-0.49-0.11-0.98
				c0-0.49,0.03-0.49,0.03-0.98c0-0.4-0.03-0.75-0.17-1.03c-0.11-0.26-0.26-0.57-0.72-0.72c-0.26-0.11-0.63-0.03-1.06-0.09
				c-0.29-0.03-0.63-0.2-1.01-0.23c-0.32,0-0.69-0.03-1.06-0.03c-0.49,0-0.89-0.06-1.15-0.32c-0.26-0.29-0.34-0.66-0.34-1.15
				c0-0.55,0.06-0.55,0.06-1.06c0-0.43,0-0.86,0.29-1.15c0.29-0.26,0.72-0.26,1.15-0.26c0.52,0,0.52-0.09,1.01-0.09
				c0.49,0,0.49-0.06,0.98-0.06c0.49,0,0.49,0,1.01,0c0.49,0,0.49-0.03,0.98-0.03c0.49,0,0.49,0.06,0.98,0.06
				c0.49,0,0.49,0.11,0.98,0.11c0.52,0,0.52-0.03,1.01-0.03c0.49,0,0.49-0.17,0.98-0.17c0.49,0,0.49,0.17,0.98,0.17
				c0.49,0,0.49,0.06,1.01,0.06c0.49,0,0.49-0.09,0.98-0.09c0.49,0,0.49,0,0.98,0c0.49,0,0.49-0.06,0.98-0.06
				c0.52,0,0.52-0.06,1.01-0.06c0.49,0,0.49,0.03,0.98,0.03c0.49,0,0.49-0.03,0.98-0.03c0.49,0,0.49,0.11,0.98,0.11
				c0.52,0,0.52,0.09,1.01,0.09c0.49,0,0.49-0.06,0.98-0.06c0.49,0,0.49-0.11,0.98-0.11c0.49,0,0.49,0.14,1.01,0.14
				c0.49,0,0.49,0.03,0.98,0.03c0.49,0,0.49,0,0.98,0c0.49,0,0.49,0,0.98,0c0.49,0,0.49-0.09,1.01-0.09c0.49,0,0.49-0.09,0.98-0.09
				c0.49,0,0.49,0.14,0.98,0.14c0.49,0,0.49-0.03,0.98-0.03c0.46,0,0.83,0.11,1.09,0.37c0.29,0.26,0.52,0.63,0.52,1.06
				c0,0.55-0.03,0.55-0.03,1.06c0,0.55,0.06,0.55,0.06,1.06c0,0.52-0.03,0.52-0.03,1.06c0,0.52,0.03,0.52,0.03,1.06
				c0,0.43-0.23,0.83-0.49,1.12c-0.26,0.29-0.66,0.52-1.09,0.52c-0.55,0-0.55-0.14-1.06-0.14c-0.49,0-0.95-0.03-1.21-0.29
				c-0.26-0.26-0.37-0.72-0.37-1.21c0-0.32,0.11-0.66,0.03-0.92c-0.11-0.26-0.34-0.55-0.66-0.66c-0.23-0.09-0.55-0.17-0.92-0.17
				c-0.49,0-0.49,0.17-1.01,0.17c-0.49,0-0.49,0.03-1.01,0.03s-0.52-0.2-1.01-0.2c-0.52,0-0.52,0-1.01,0
				c-0.52,0-0.52,0.06-1.03,0.06c-0.49,0-0.49-0.03-1.01-0.03c-0.49,0-0.49,0.17-1.01,0.17c-0.49,0-0.49-0.09-1.01-0.09
				c-0.52,0-0.52-0.06-1.01-0.06c-0.52,0-0.52,0.14-1.01,0.14c-0.52,0-0.52-0.03-1.01-0.03c-0.43,0-0.75,0.06-1.01,0.2
				c-0.34,0.17-0.63,0.34-0.75,0.69c-0.11,0.29-0.09,0.66-0.09,1.06c0,0.55,0.09,0.55,0.09,1.12c0,0.55,0.14,1.09,0.98,1.09
				c0.57,0,0.57-0.06,1.12-0.06c0.55,0,0.55,0,1.09,0s0.55,0.17,1.09,0.17c0.55,0,0.55-0.03,1.09-0.03c0.32,0,0.72-0.06,1.01-0.2
				c0.34-0.14,0.63-0.46,0.63-0.83c0-0.49,0.06-0.89,0.32-1.15c0.26-0.26,0.69-0.29,1.18-0.29c0.52,0,0.52-0.14,1.03-0.14
				c0.43,0,0.75,0.29,1.01,0.57c0.26,0.29,0.4,0.57,0.4,1.03c0,0.52,0,0.52,0,1.06c0,0.52,0.11,0.52,0.11,1.06
				c0,0.52-0.03,0.52-0.03,1.03c0,0.55,0,0.55,0,1.06c0,0.52,0.09,0.52,0.09,1.06c0,0.43-0.29,0.78-0.55,1.03
				c-0.26,0.29-0.6,0.4-1.03,0.4c-0.52,0-0.52,0.2-1.03,0.2c-0.49,0-0.89-0.23-1.15-0.49c-0.26-0.26-0.49-0.66-0.49-1.15
				c0-0.37-0.2-0.57-0.52-0.72c-0.34-0.14-0.72-0.2-0.98-0.2c-0.55,0-0.55-0.06-1.09-0.06c-0.55,0-0.55,0.11-1.12,0.11
				c-0.55,0-0.55-0.09-1.09-0.09s-0.55,0-1.09,0c-0.83,0-1.09,0.55-1.09,1.12c0,0.55-0.06,0.55-0.06,1.09c0,0.4,0.17,0.72,0.29,1.01
				c0.11,0.26,0.23,0.57,0.66,0.72c0.26,0.11,0.6,0.11,1.03,0.17c0.29,0.03,0.63,0.14,1.03,0.17c0.29,0.03,0.66,0,1.03,0
				c0.49,0,0.89,0.11,1.18,0.37c0.26,0.26,0.29,0.66,0.29,1.18c0,0.52,0.06,0.52,0.06,1.03c0,0.43-0.14,0.83-0.43,1.09
				c-0.26,0.26-0.66,0.29-1.09,0.29C148.06,190.65,148.06,190.73,147.57,190.79z"/>
			<path class="st0" d="M204.5,173.16c0,0.52,0.06,0.52,0.06,1.06c0,0.52-0.03,0.52-0.03,1.03c0,0.55-0.03,0.55-0.03,1.06
				c0,0.46-0.14,0.86-0.4,1.15c-0.26,0.26-0.66,0.4-1.09,0.4c-0.55,0-0.55,0.06-1.06,0.06c-0.49,0-0.86-0.2-1.15-0.46
				c-0.26-0.26-0.34-0.63-0.34-1.12c0-0.34,0-0.66-0.11-0.92c-0.09-0.26-0.32-0.52-0.6-0.66c-0.23-0.09-0.55-0.14-0.92-0.14
				c-0.49,0-0.49,0-0.98,0c-0.49,0-0.49,0.14-0.95,0.14c-0.49,0-0.49-0.17-0.98-0.17c-0.49,0-0.49,0.11-0.98,0.11
				c-0.49,0-0.49,0-0.98,0c-0.37,0-0.69-0.03-0.98,0c-0.4,0.06-0.69,0.2-0.92,0.32c-0.32,0.2-0.63,0.37-0.72,0.69
				c-0.09,0.26,0.03,0.63,0.03,1.01c0,0.49-0.06,0.49-0.06,0.98c0,0.49,0.11,0.49,0.11,0.98c0,0.52-0.17,0.52-0.17,1.01
				c0,0.49,0.11,0.49,0.11,0.98c0,0.49,0,0.49,0,0.98c0,0.52-0.06,0.52-0.06,1.01c0,0.49,0.09,0.49,0.09,0.98s-0.11,0.49-0.11,1.01
				c0,0.37,0,0.75,0.11,1.03c0.11,0.26,0.4,0.46,0.83,0.63c0.26,0.09,0.6,0.17,1.03,0.23c0.29,0.03,0.63-0.06,1.03-0.03
				c0.32,0.03,0.66,0.06,1.06,0.06c0.49,0,0.8,0.29,1.06,0.55c0.26,0.26,0.57,0.6,0.57,1.09c0,0.52,0,0.52,0,1.03
				c0,0.43-0.34,0.78-0.6,1.03c-0.29,0.26-0.6,0.46-1.06,0.46c-0.49,0-0.49,0.09-0.95,0.09c-0.49,0-0.49-0.11-0.98-0.11
				c-0.49,0-0.49,0.14-0.98,0.14c-0.46,0-0.46-0.17-0.95-0.17c-0.49,0-0.49,0.06-0.98,0.06c-0.49,0-0.49,0.03-0.95,0.03
				c-0.49,0-0.49,0-0.98,0c-0.49,0-0.49,0-0.98,0c-0.49,0-0.49-0.11-0.95-0.11c-0.49,0-0.49,0.03-0.98,0.03
				c-0.49,0-0.49,0.14-0.98,0.14c-0.46,0-0.46,0-0.95,0c-0.49,0-0.49-0.14-0.98-0.14c-0.49,0-0.49,0.11-0.98,0.11
				c-0.46,0-0.46-0.11-0.95-0.11c-0.46,0-0.92-0.03-1.18-0.29c-0.29-0.26-0.43-0.72-0.43-1.15c0-0.52,0.03-0.52,0.03-1.03
				c0-0.52,0.17-0.89,0.43-1.15c0.26-0.29,0.66-0.4,1.15-0.4c0.37,0,0.72-0.09,1.03-0.11c0.4-0.03,0.75-0.06,1.03-0.09
				c0.43-0.06,0.8,0.03,1.06-0.09c0.43-0.14,0.72-0.4,0.83-0.66c0.11-0.29,0.09-0.69,0.09-1.06c0-0.52-0.17-0.52-0.17-1.01
				s0.03-0.49,0.03-0.98c0-0.49,0.03-0.49,0.03-0.98c0-0.52-0.03-0.52-0.03-1.01c0-0.49,0.11-0.49,0.11-0.98
				c0-0.49-0.03-0.49-0.03-0.98c0-0.52,0.03-0.52,0.03-1.01c0-0.49-0.11-0.49-0.11-0.98c0-0.37,0.03-0.69-0.06-0.98
				c-0.09-0.32-0.14-0.66-0.49-0.83c-0.23-0.11-0.57-0.17-1.01-0.23c-0.26-0.03-0.6-0.03-1.01-0.03c-0.46,0-0.46,0.11-0.95,0.11
				c-0.49,0-0.49,0.03-0.98,0.03c-0.49,0-0.49-0.11-0.98-0.11c-0.49,0-0.49,0-0.95,0c-0.49,0-0.49,0.06-0.98,0.06
				c-0.37,0-0.63,0.09-0.83,0.2c-0.32,0.11-0.6,0.23-0.72,0.49c-0.09,0.26-0.06,0.57-0.06,0.92c0,0.49-0.14,0.83-0.43,1.09
				c-0.26,0.26-0.6,0.43-1.09,0.43c-0.52,0-0.52,0-1.06,0c-0.43,0-0.75-0.23-1.01-0.49c-0.26-0.29-0.4-0.6-0.4-1.06
				c0-0.52-0.17-0.52-0.17-1.03c0-0.55,0-0.55,0-1.06c0-0.55,0-0.55,0-1.06c0-0.52,0.03-0.52,0.03-1.06c0-0.43,0.29-0.75,0.57-1.01
				c0.26-0.26,0.57-0.4,1.03-0.4c0.49,0,0.49-0.2,0.98-0.2c0.49,0,0.49,0.23,1.01,0.23c0.49,0,0.49-0.03,0.98-0.03
				c0.49,0,0.49,0,1.01,0c0.49,0,0.49-0.11,0.98-0.11c0.49,0,0.49-0.03,0.98-0.03c0.52,0,0.52-0.03,1.01-0.03
				c0.49,0,0.49,0.06,0.98,0.06c0.52,0,0.52,0.03,1.01,0.03c0.49,0,0.49,0.09,0.98,0.09c0.52,0,0.52-0.03,1.01-0.03
				c0.49,0,0.49-0.03,0.98-0.03c0.52,0,0.52,0.09,1.01,0.09c0.49,0,0.49-0.06,0.98-0.06c0.49,0,0.49,0.03,1.01,0.03
				c0.49,0,0.49-0.14,0.98-0.14c0.49,0,0.49,0.06,1.01,0.06c0.49,0,0.49,0.03,0.98,0.03c0.49,0,0.49,0,0.98,0
				c0.52,0,0.52-0.06,1.01-0.06c0.49,0,0.49-0.09,0.98-0.09c0.52,0,0.52,0.09,1.01,0.09c0.49,0,0.49-0.03,0.98-0.03
				c0.52,0,0.52,0.14,1.01,0.14c0.49,0,0.49-0.09,0.98-0.09c0.52,0,0.52-0.09,1.01-0.09c0.49,0,0.49,0.17,1.01,0.17
				c0.49,0,0.49-0.2,0.98-0.2c0.49,0,0.49,0.23,1.01,0.23c0.49,0,0.49-0.17,0.98-0.17c0.46,0,0.86,0.2,1.12,0.46
				c0.29,0.26,0.37,0.66,0.37,1.09C204.44,172.64,204.5,172.64,204.5,173.16z"/>
			<path class="st0" d="M248.16,174.79c-0.4,0.03-0.78-0.14-1.06-0.09c-0.43,0.06-0.72,0.32-0.98,0.4
				c-0.43,0.17-0.63,0.37-0.75,0.63c-0.14,0.29-0.09,0.6-0.09,1.01c0,0.49-0.09,0.49-0.09,0.98s0.06,0.49,0.06,1.01
				c0,0.49-0.17,0.49-0.17,0.98c0,0.49,0.2,0.49,0.2,0.98c0,0.49-0.11,0.49-0.11,1.01c0,0.49,0.09,0.49,0.09,0.98
				c0,0.49-0.03,0.49-0.03,0.98c0,0.49,0.06,0.49,0.06,1.01c0,0.37-0.06,0.72,0.09,1.01c0.11,0.26,0.29,0.52,0.72,0.69
				c0.26,0.09,0.6,0.06,1.03,0.09c0.32,0.06,0.66,0.03,1.03,0.03c0.32,0.03,0.66,0.26,1.06,0.26c0.49,0,0.83,0.11,1.09,0.37
				c0.26,0.26,0.46,0.63,0.46,1.12c0,0.52-0.14,0.52-0.14,1.03c0,0.43-0.03,0.86-0.32,1.12c-0.26,0.26-0.66,0.49-1.12,0.49
				c-0.49,0-0.49-0.11-0.98-0.11c-0.46,0-0.46-0.09-0.95-0.09c-0.49,0-0.49,0.03-0.98,0.03c-0.49,0-0.49,0.14-0.98,0.14
				c-0.46,0-0.46-0.17-0.95-0.17c-0.49,0-0.49,0.11-0.98,0.11c-0.49,0-0.49-0.09-0.95-0.09c-0.49,0-0.49,0.11-0.98,0.11
				c-0.49,0-0.49-0.2-0.98-0.2c-0.46,0-0.46,0.29-0.95,0.29c-0.49,0-0.49-0.29-0.98-0.29c-0.49,0-0.49,0.26-0.98,0.26
				c-0.46,0-0.46-0.14-0.95-0.14c-0.49,0-0.49-0.11-0.98-0.11c-0.46,0-0.46,0.06-0.95,0.06c-0.46,0-0.89,0-1.15-0.26
				c-0.29-0.29-0.32-0.72-0.32-1.15c0-0.52-0.14-0.52-0.14-1.03c0-0.52,0.17-0.92,0.43-1.18c0.26-0.26,0.69-0.37,1.18-0.37
				c0.37,0,0.72-0.11,1.03-0.14c0.4,0,0.75-0.03,1.03-0.06c0.43-0.06,0.8,0.09,1.06-0.03c0.46-0.14,0.72-0.46,0.83-0.72
				c0.11-0.29,0-0.69,0-1.06c0-0.57,0.17-0.57,0.17-1.12c0-0.75-0.34-1.09-1.15-1.09c-0.49,0-0.49-0.06-0.98-0.06
				c-0.49,0-0.46,0.03-0.95,0.03c-0.49,0-0.49-0.14-0.98-0.14c-0.49,0-0.49,0.06-0.98,0.06c-0.49,0-0.49,0.03-1.01,0.03
				c-0.49,0-0.49-0.06-0.98-0.06c-0.49,0-0.49-0.06-0.98-0.06c-0.49,0-0.49,0.23-0.98,0.23c-0.49,0-0.49-0.03-0.98-0.03
				c-0.49,0-0.49,0.09-0.98,0.09c-0.49,0-0.49-0.14-0.98-0.14c-0.49,0-0.49,0-0.98,0c-0.6,0-1.09,0.2-1.09,1.15
				c0,0.55,0.17,0.55,0.17,1.12c0,0.37-0.11,0.75,0.03,1.03c0.11,0.26,0.4,0.43,0.83,0.57c0.26,0.11,0.57,0.32,1.01,0.37
				c0.29,0.03,0.63-0.03,1.03,0c0.32,0,0.66,0.09,1.06,0.09c0.49,0,0.86,0.09,1.12,0.34c0.26,0.26,0.52,0.66,0.52,1.15
				c0,0.52-0.2,0.52-0.2,1.03c0,0.43-0.11,0.78-0.4,1.03c-0.26,0.29-0.6,0.46-1.06,0.46c-0.49,0-0.49,0.06-0.95,0.06
				c-0.49,0-0.49-0.06-0.98-0.06c-0.49,0-0.49,0-0.98,0c-0.49,0-0.49-0.03-0.95-0.03c-0.49,0-0.49,0.11-0.98,0.11
				c-0.49,0-0.49-0.17-0.98-0.17c-0.46,0-0.46,0.23-0.95,0.23c-0.49,0-0.49-0.09-0.98-0.09c-0.49,0-0.49,0.06-0.98,0.06
				c-0.46,0-0.46-0.09-0.95-0.09c-0.49,0-0.49-0.06-0.98-0.06s-0.49,0.09-0.95,0.09c-0.49,0-0.49-0.06-0.98-0.06
				c-0.49,0-0.49,0.14-0.98,0.14c-0.46,0-0.46-0.26-0.95-0.26c-0.46,0-0.89,0.03-1.15-0.23c-0.29-0.26-0.4-0.72-0.4-1.15
				c0-0.52,0.14-0.52,0.14-1.03c0-0.52,0.06-0.83,0.32-1.09c0.29-0.26,0.6-0.37,1.09-0.37c0.37,0,0.72-0.06,1.03-0.06
				c0.4-0.03,0.75-0.2,1.03-0.23c0.43-0.06,0.72-0.17,0.98-0.26c0.46-0.17,0.6-0.32,0.72-0.6c0.11-0.26,0.29-0.57,0.29-0.95
				c0-0.52,0.03-0.52,0.03-1.01c0-0.49,0.06-0.49,0.06-0.98c0-0.49-0.11-0.49-0.11-1.01c0-0.49-0.03-0.49-0.03-0.98
				c0-0.49-0.03-0.49-0.03-0.98c0-0.49,0-0.49,0-1.01c0-0.49-0.09-0.49-0.09-0.98s0.03-0.49,0.03-0.98c0-0.4,0.06-0.75-0.06-1.03
				c-0.11-0.26-0.26-0.63-0.72-0.78c-0.26-0.09-0.63-0.03-1.06-0.09c-0.29-0.03-0.63-0.23-1.03-0.23c-0.32-0.03-0.66,0.14-1.06,0.14
				c-0.49,0-0.95-0.09-1.24-0.34c-0.26-0.26-0.26-0.75-0.26-1.24c0-0.55,0.09-0.55,0.09-1.06c0-0.43,0.14-0.72,0.43-0.98
				c0.26-0.26,0.55-0.37,1.01-0.37c0.49,0,0.49-0.06,0.98-0.06c0.46,0,0.46-0.2,0.95-0.2c0.49,0,0.49,0.06,0.98,0.06
				c0.49,0,0.49,0.11,0.98,0.11c0.46,0,0.46-0.06,0.95-0.06c0.49,0,0.49,0.14,0.98,0.14c0.49,0,0.49-0.29,0.95-0.29
				c0.49,0,0.49,0.23,0.98,0.23c0.49,0,0.49-0.11,0.98-0.11c0.46,0,0.46,0.14,0.95,0.14c0.49,0,0.49,0.03,0.98,0.03
				c0.49,0,0.49-0.06,0.98-0.06c0.46,0,0.46-0.23,0.95-0.23c0.49,0,0.49,0.09,0.98,0.09c0.49,0,0.49-0.03,0.95-0.03
				s0.75,0.34,1.03,0.6c0.26,0.26,0.43,0.55,0.43,0.98c0,0.52,0.17,0.52,0.17,1.06c0,0.49-0.26,0.83-0.52,1.09
				c-0.29,0.26-0.63,0.43-1.12,0.43c-0.37,0-0.72,0.14-1.03,0.17c-0.4,0-0.75-0.17-1.06-0.14c-0.43,0.06-0.72,0.26-0.98,0.34
				c-0.46,0.17-0.66,0.37-0.8,0.63c-0.11,0.29-0.2,0.63-0.2,1.03c0,0.55,0,0.55,0,1.12c0,0.57-0.11,1.03,1.06,1.03
				c0.49,0,0.49-0.03,0.98-0.03c0.49,0,0.49,0.09,0.98,0.09c0.49,0,0.49,0.09,0.98,0.09c0.49,0,0.49,0,0.98,0
				c0.52,0,0.52-0.06,1.01-0.06c0.49,0,0.49-0.09,0.98-0.09c0.49,0,0.49,0.11,0.98,0.11c0.49,0,0.49,0.11,0.98,0.11
				c0.49,0,0.49-0.29,0.98-0.29c0.49,0,0.49,0.26,0.98,0.26c0.49,0,0.49-0.11,0.98-0.11s0.49,0.09,0.98,0.09
				c0.92,0,0.83-0.63,0.83-1.21c0-0.57,0.2-0.57,0.2-1.12c0-0.4,0.09-0.8-0.03-1.09c-0.11-0.26-0.52-0.37-0.95-0.55
				c-0.26-0.09-0.57-0.2-1.01-0.26c-0.32-0.03-0.66,0.03-1.06,0.03c-0.29-0.03-0.63-0.14-1.03-0.14c-0.49,0-0.86-0.17-1.12-0.43
				c-0.26-0.26-0.29-0.63-0.29-1.12c0-0.55-0.14-0.55-0.14-1.06c0-0.43,0.17-0.83,0.46-1.09c0.26-0.26,0.66-0.26,1.12-0.26
				c0.49,0,0.49-0.23,0.95-0.23c0.49,0,0.49,0,0.98,0c0.49,0,0.49,0.11,0.98,0.11c0.49,0,0.49,0.03,0.95,0.03
				c0.49,0,0.49-0.09,0.98-0.09c0.49,0,0.49-0.06,0.98-0.06c0.46,0,0.46,0.03,0.95,0.03c0.49,0,0.49,0.17,0.98,0.17
				c0.49,0,0.49-0.14,0.98-0.14c0.46,0,0.46-0.11,0.95-0.11c0.49,0,0.49,0.03,0.98,0.03c0.49,0,0.49,0.06,0.95,0.06
				c0.49,0,0.49-0.03,0.98-0.03c0.49,0,0.49,0.06,0.98,0.06c0.46,0,0.46,0.03,0.95,0.03c0.46,0,0.86,0.11,1.15,0.37
				c0.29,0.26,0.37,0.69,0.37,1.12c0,0.52,0,0.52,0,1.06c0,0.49-0.2,0.78-0.46,1.03c-0.26,0.26-0.57,0.46-1.06,0.46
				C248.82,174.68,248.47,174.79,248.16,174.79z"/>
			<path class="st0" d="M272.17,170.05c0.34,0,0.66,0.03,1.01,0.06c0.34,0,0.69-0.06,1.01-0.03c0.34,0.03,0.66,0.23,0.98,0.29
				c0.34,0.06,0.69,0.11,1.01,0.17c0.34,0.09,0.69,0.03,1.01,0.11c0.34,0.09,0.66,0.26,0.95,0.37c0.34,0.11,0.6,0.32,0.92,0.46
				c0.32,0.14,0.69,0.11,0.98,0.29c0.32,0.14,0.55,0.4,0.83,0.57c0.29,0.17,0.6,0.32,0.89,0.52c0.26,0.2,0.49,0.46,0.72,0.69
				c0.26,0.23,0.57,0.37,0.8,0.63c0.23,0.23,0.4,0.55,0.6,0.8c0.2,0.29,0.46,0.52,0.63,0.8c0.17,0.29,0.2,0.66,0.34,0.95
				c0.14,0.32,0.37,0.57,0.49,0.89c0.11,0.32,0.26,0.63,0.34,0.98c0.06,0.32,0.11,0.66,0.14,1.01c0.03,0.32-0.06,0.66-0.06,1.01
				c0,0.32,0.03,0.66,0,1.01c-0.03,0.32-0.03,0.66-0.11,1.01c-0.06,0.32-0.29,0.6-0.4,0.92c-0.09,0.32-0.23,0.63-0.37,0.92
				c-0.14,0.32-0.2,0.66-0.37,0.95c-0.17,0.29-0.4,0.55-0.63,0.8c-0.2,0.26-0.43,0.49-0.69,0.75c-0.23,0.23-0.4,0.52-0.66,0.75
				c-0.26,0.23-0.52,0.43-0.8,0.63c-0.26,0.2-0.55,0.34-0.86,0.55c-0.26,0.17-0.52,0.4-0.83,0.57c-0.29,0.14-0.63,0.2-0.95,0.34
				c-0.32,0.11-0.6,0.34-0.92,0.43c-0.32,0.11-0.69,0.06-1.01,0.14c-0.32,0.11-0.63,0.32-0.95,0.37c-0.32,0.09-0.69,0.03-1.03,0.06
				c-0.32,0.06-0.63,0.26-0.98,0.29c-0.32,0.06-0.66-0.09-1.01-0.06c-0.34,0.03-0.66,0.17-1.01,0.2c-0.34,0-0.66,0.06-1.01,0.06
				c-0.34,0-0.69-0.09-1.03-0.09c-0.34-0.03-0.66-0.03-1.01-0.06c-0.34-0.03-0.69,0-1.01-0.06c-0.34-0.03-0.69-0.09-1.01-0.11
				c-0.34-0.06-0.66-0.14-1.01-0.2c-0.32-0.09-0.6-0.34-0.92-0.43c-0.34-0.09-0.69-0.09-1.01-0.2s-0.66-0.14-0.95-0.29
				c-0.32-0.14-0.63-0.26-0.95-0.43c-0.29-0.14-0.52-0.43-0.8-0.6c-0.29-0.2-0.63-0.29-0.89-0.49c-0.26-0.2-0.52-0.43-0.75-0.66
				c-0.26-0.23-0.52-0.43-0.75-0.69c-0.23-0.23-0.4-0.55-0.6-0.8c-0.2-0.29-0.4-0.55-0.57-0.83c-0.17-0.29-0.37-0.57-0.52-0.86
				c-0.14-0.32-0.23-0.63-0.34-0.95c-0.11-0.32-0.34-0.6-0.4-0.92c-0.09-0.34-0.14-0.66-0.2-1.01c-0.03-0.34-0.09-0.69-0.09-1.01
				c0-0.34,0.11-0.69,0.17-1.01c0.03-0.34,0.03-0.69,0.09-1.01c0.09-0.34,0.23-0.66,0.34-0.98c0.11-0.32,0.23-0.63,0.37-0.95
				c0.14-0.29,0.26-0.6,0.46-0.92c0.17-0.26,0.43-0.52,0.63-0.78c0.2-0.26,0.34-0.57,0.6-0.83c0.2-0.23,0.6-0.34,0.86-0.55
				c0.23-0.23,0.49-0.46,0.75-0.66c0.26-0.2,0.55-0.37,0.83-0.55c0.29-0.17,0.52-0.49,0.8-0.66c0.29-0.14,0.6-0.29,0.92-0.43
				c0.32-0.11,0.66-0.11,1.01-0.23c0.32-0.11,0.6-0.26,0.95-0.37c0.32-0.09,0.63-0.11,0.98-0.2c0.32-0.06,0.63-0.23,0.98-0.29
				c0.32-0.06,0.66-0.06,1.01-0.09c0.34-0.06,0.66-0.11,1.01-0.14c0.34-0.03,0.66-0.09,1.01-0.09c0.34-0.03,0.69,0.06,1.03,0.06
				C271.51,169.97,271.82,170.03,272.17,170.05z M272.2,186.42c0.34-0.03,0.69,0.06,1.03,0c0.34-0.03,0.66-0.26,0.98-0.34
				c0.34-0.06,0.72-0.03,1.03-0.14c0.32-0.11,0.6-0.37,0.89-0.52c0.32-0.17,0.57-0.4,0.83-0.6c0.29-0.2,0.6-0.37,0.83-0.6
				c0.23-0.26,0.43-0.52,0.6-0.83c0.2-0.29,0.29-0.6,0.4-0.95c0.11-0.32,0.2-0.63,0.26-0.98c0.06-0.32,0.06-0.66,0.06-1.01
				c0-0.37,0.17-0.75,0.11-1.06c-0.06-0.34-0.23-0.66-0.34-0.98c-0.11-0.34-0.34-0.6-0.52-0.89c-0.17-0.32-0.37-0.57-0.63-0.8
				c-0.23-0.26-0.37-0.6-0.66-0.8c-0.26-0.2-0.63-0.32-0.92-0.49c-0.32-0.14-0.6-0.32-0.95-0.43c-0.32-0.14-0.63-0.2-0.98-0.29
				s-0.66-0.23-1.01-0.29c-0.34-0.06-0.69-0.09-1.03-0.11c-0.34-0.03-1.72,0.09-2.07,0.11c-0.34,0.03-0.69,0.09-1.01,0.11
				c-0.34,0.06-0.69,0.14-1.01,0.23c-0.34,0.09-0.69,0.09-1.01,0.2c-0.34,0.14-0.63,0.34-0.92,0.49c-0.32,0.17-0.63,0.29-0.89,0.49
				c-0.29,0.23-0.55,0.46-0.78,0.72c-0.23,0.23-0.37,0.55-0.57,0.83c-0.17,0.29-0.37,0.55-0.49,0.89c-0.11,0.32-0.11,0.66-0.17,1.01
				c-0.06,0.32-0.29,0.66-0.29,1.01c0,0.37,0.06,0.72,0.11,1.03c0.06,0.37,0.11,0.72,0.23,1.03c0.11,0.34,0.43,0.57,0.6,0.86
				c0.17,0.29,0.37,0.55,0.6,0.8c0.23,0.26,0.4,0.57,0.69,0.8c0.26,0.2,0.6,0.32,0.92,0.49c0.29,0.14,0.57,0.34,0.92,0.46
				c0.32,0.11,0.66,0.11,1.01,0.2c0.34,0.09,0.66,0.2,1.01,0.26c0.34,0.06,0.69,0.06,1.03,0.09c0.34,0.03,0.69,0,1.03,0v0.09
				C271.51,186.51,271.85,186.45,272.2,186.42z"/>
			<path class="st0" d="M308.56,191.16c-0.32,0-0.66,0-0.98-0.03s-0.63-0.17-0.95-0.2c-0.34-0.06-0.66-0.09-0.98-0.14
				c-0.34-0.06-0.66-0.03-0.98-0.09c-0.34-0.09-0.69-0.09-0.98-0.17c-0.32-0.11-0.63-0.23-0.95-0.34c-0.29-0.11-0.6-0.26-0.89-0.4
				c-0.32-0.14-0.55-0.37-0.83-0.55c-0.29-0.14-0.57-0.32-0.83-0.49c-0.29-0.17-0.52-0.4-0.78-0.6c-0.26-0.2-0.49-0.43-0.72-0.66
				c-0.26-0.23-0.52-0.43-0.72-0.66c-0.2-0.26-0.32-0.6-0.49-0.86c-0.17-0.29-0.34-0.57-0.49-0.83c-0.14-0.32-0.4-0.55-0.55-0.83
				c-0.11-0.32-0.17-0.63-0.26-0.95c-0.09-0.32-0.26-0.6-0.32-0.95c-0.09-0.32-0.03-0.66-0.06-0.98c-0.06-0.32-0.11-0.66-0.11-0.98
				c0-0.46,0.03-0.46,0.03-0.92s0.11-0.46,0.11-0.95c0-0.46-0.09-0.46-0.09-0.92c0-0.46-0.09-0.46-0.09-0.95
				c0-0.37-0.06-0.66-0.23-0.95c-0.17-0.26-0.4-0.43-0.75-0.6c-0.26-0.11-0.55-0.29-0.95-0.34c-0.29-0.03-0.63-0.17-1.01-0.17
				c-0.49,0-0.8-0.14-1.06-0.4c-0.26-0.29-0.37-0.6-0.37-1.09c0-0.52-0.09-0.52-0.09-1.03c0-0.43,0.2-0.75,0.49-1.03
				c0.29-0.26,0.6-0.4,1.06-0.4s0.46-0.11,0.95-0.11c0.49,0,0.49-0.03,0.98-0.03c0.49,0,0.49,0.2,0.95,0.2
				c0.49,0,0.49-0.17,0.98-0.17c0.49,0,0.49,0.14,0.98,0.14c0.46,0,0.46-0.06,0.95-0.06c0.49,0,0.49,0,0.98,0s0.49,0.11,0.95,0.11
				c0.49,0,0.49-0.14,0.98-0.14c0.49,0,0.49,0,0.98,0c0.46,0,0.46-0.06,0.95-0.06c0.49,0,0.49,0.03,0.98,0.03c0.46,0,0.46,0,0.95,0
				c0.46,0,0.75,0.26,1.03,0.52c0.29,0.26,0.43,0.57,0.43,1.01c0,0.52,0.09,0.52,0.09,1.06c0,0.49-0.17,0.83-0.43,1.09
				c-0.29,0.26-0.63,0.34-1.12,0.34c0,0-0.69,0.23-0.98,0.29c-0.4,0.03-0.69,0.09-0.92,0.23c-0.34,0.17-0.55,0.32-0.66,0.63
				c-0.09,0.29-0.09,0.57-0.09,0.98c0,0.52-0.2,0.52-0.2,1.01c0,0.52,0.11,0.52,0.11,1.03c0,0.52-0.11,0.52-0.11,1.03
				c0,0.52,0.14,0.52,0.14,1.03c0,0.32,0.06,0.63,0.11,0.92c0.06,0.34-0.03,0.69,0.09,0.98c0.11,0.32,0.32,0.6,0.46,0.86
				c0.17,0.26,0.37,0.52,0.6,0.75c0.23,0.23,0.49,0.4,0.75,0.6c0.26,0.2,0.52,0.4,0.8,0.55c0.29,0.14,0.52,0.37,0.83,0.49
				c0.29,0.11,0.63,0.17,0.92,0.26c0.32,0.09,0.63,0.17,0.95,0.23c0.32,0.06,0.66-0.03,0.98,0c0.32,0.03,0.63,0.09,0.95,0.09
				c0.32,0,0.63-0.03,0.95-0.06c0.32-0.03,0.63-0.09,0.95-0.14c0.32-0.06,0.63-0.06,0.95-0.14c0.32-0.09,0.6-0.2,0.92-0.32
				c0.29-0.11,0.6-0.2,0.89-0.34c0.29-0.17,0.55-0.34,0.8-0.55c0.26-0.17,0.55-0.34,0.78-0.57c0.2-0.23,0.32-0.57,0.49-0.83
				c0.17-0.29,0.34-0.55,0.46-0.83c0.11-0.29,0.09-0.63,0.14-0.95c0.06-0.32,0.23-0.6,0.23-0.95c0-0.52-0.03-0.52-0.03-1.03
				s0.03-0.52,0.03-1.03c0-0.52,0.03-0.52,0.03-1.03c0-0.52-0.17-0.52-0.17-1.03c0-0.4,0.11-0.75,0-1.01
				c-0.11-0.34-0.34-0.63-0.66-0.8c-0.26-0.11-0.63,0-1.03-0.06c-0.29-0.03-0.98-0.06-0.98-0.06c-0.49,0-0.8-0.32-1.06-0.6
				c-0.26-0.26-0.55-0.55-0.55-1.03c0-0.55-0.03-0.55-0.03-1.06c0-0.43,0.2-0.86,0.49-1.12c0.26-0.26,0.69-0.4,1.15-0.4
				c0.46,0,0.46-0.09,0.95-0.09c0.49,0,0.49,0.03,0.98,0.03c0.49,0,0.49,0.17,0.95,0.17c0.49,0,0.49-0.11,0.98-0.11
				c0.49,0,0.49,0.09,0.95,0.09c0.49,0,0.49-0.09,0.98-0.09c0.49,0,0.49,0.09,0.98,0.09c0.46,0,0.46-0.03,0.95-0.03
				c0.49,0,0.49,0.06,0.98,0.06c0.46,0,0.46-0.2,0.95-0.2c0.49,0,0.49,0,0.98,0c0.46,0,0.46,0.23,0.95,0.23
				c0.43,0,0.8,0.06,1.06,0.32c0.29,0.29,0.49,0.63,0.49,1.06c0,0.52,0.03,0.52,0.03,1.03c0,0.49-0.14,0.92-0.4,1.18
				c-0.26,0.29-0.69,0.32-1.18,0.32c-0.34,0-0.66,0.17-0.98,0.23c-0.37,0.06-0.69,0.11-0.98,0.26c-0.32,0.17-0.52,0.4-0.69,0.66
				c-0.17,0.29-0.26,0.55-0.26,0.92c0,0.14-0.06,0.49-0.06,0.95c0,0.29-0.03,0.6-0.03,0.92c0,0.32-0.06,0.66-0.06,0.95
				c0,0.52,0.11,0.46,0.11,0.92c0,0.32-0.03,0.66-0.06,0.98c-0.03,0.34-0.23,0.63-0.32,0.95c-0.06,0.32,0.03,0.69-0.06,1.01
				c-0.09,0.29-0.14,0.63-0.29,0.95c-0.11,0.29-0.26,0.6-0.43,0.89c-0.14,0.29-0.43,0.49-0.63,0.75c-0.17,0.29-0.4,0.52-0.6,0.78
				c-0.2,0.23-0.43,0.46-0.66,0.69c-0.23,0.23-0.43,0.49-0.69,0.72c-0.26,0.2-0.43,0.52-0.69,0.69c-0.29,0.17-0.6,0.26-0.92,0.43
				c-0.26,0.14-0.6,0.2-0.92,0.34c-0.29,0.14-0.55,0.34-0.86,0.46c-0.29,0.11-0.55,0.34-0.89,0.46c-0.29,0.09-0.66-0.03-1.01,0.06
				c-0.29,0.06-0.57,0.32-0.92,0.37c-0.32,0.06-0.63,0.11-0.98,0.17c-0.32,0.03-0.63-0.06-0.98-0.03c-0.32,0.03-0.66,0.09-0.98,0.11
				c-0.32,0-0.66-0.03-0.98-0.03C309.22,191.19,308.9,191.19,308.56,191.16z"/>
			<path class="st0" d="M361.55,185.42c-0.06,0.34-0.32,0.63-0.46,0.92c-0.11,0.32-0.17,0.69-0.37,0.98
				c-0.2,0.26-0.46,0.49-0.72,0.72c-0.23,0.26-0.57,0.37-0.83,0.57c-0.29,0.2-0.49,0.52-0.78,0.69c-0.32,0.14-0.63,0.26-0.95,0.4
				c-0.32,0.14-0.6,0.32-0.92,0.43c-0.34,0.11-0.69,0.14-1.01,0.23c-0.34,0.09-0.63,0.34-0.95,0.43c-0.34,0.06-0.69,0.11-1.01,0.17
				c-0.34,0.06-0.72,0-1.03,0.03c-0.34,0.03-0.69,0.23-1.01,0.26c-0.37,0-0.72,0.03-1.03,0.03c-0.34,0-0.69-0.03-1.03-0.03
				c-0.34-0.03-0.66-0.23-1.01-0.23c-0.34-0.03-0.69-0.03-1.01-0.06c-0.34-0.06-0.72,0-1.03-0.03c-0.34-0.06-0.69-0.11-1.01-0.17
				c-0.34-0.06-0.66-0.2-0.98-0.29c-0.34-0.06-0.72-0.06-1.03-0.14c-0.34-0.09-0.63-0.29-0.95-0.37c-0.34-0.11-0.63-0.29-0.92-0.4
				c-0.37-0.14-0.69-0.2-0.98-0.34c-0.34-0.17-0.72-0.23-0.95-0.37c-0.57-0.32-0.75-0.17-0.75,0.29c0,0.32-0.06,0.63-0.14,0.86
				c-0.14,0.26-0.4,0.43-0.66,0.55c-0.23,0.11-0.52,0.14-0.83,0.14c-0.52,0-0.52-0.03-1.03-0.03c-0.46,0-0.86-0.11-1.12-0.4
				c-0.26-0.29-0.32-0.69-0.32-1.15c0-0.52-0.14-0.52-0.14-1.03c0-0.52,0.06-0.52,0.06-1.03c0-0.52,0.06-0.52,0.06-1.03
				s0.03-0.52,0.03-1.03c0-0.52,0.03-0.52,0.03-1.03c0-0.46,0.06-0.83,0.32-1.12c0.29-0.29,0.63-0.57,1.09-0.57
				c0.34,0,0.34,0.03,0.66,0.03c0.46,0,0.75,0.2,0.98,0.32c0.34,0.14,0.66,0.23,0.86,0.55c0.17,0.23,0.2,0.63,0.49,0.95
				c0.2,0.23,0.52,0.43,0.8,0.63c0.29,0.17,0.6,0.34,0.92,0.49c0.29,0.14,0.63,0.26,0.98,0.37c0.32,0.11,0.63,0.23,0.98,0.32
				c0.32,0.11,0.69,0.09,1.01,0.14c0.34,0.09,0.66,0.29,1.01,0.34c0.34,0.06,0.69,0.09,1.01,0.14c0.37,0.06,0.69,0.14,1.01,0.2
				c0.4,0.03,0.75,0,1.03,0.03c0.34,0.03,0.69,0.17,1.03,0.17c0.34,0.03,0.69,0,1.03-0.03c0.34,0,0.69,0.09,1.03,0.06
				c0.34,0,0.69-0.11,1.01-0.14c0.34-0.06,0.72-0.09,1.03-0.14c0.34-0.06,0.69-0.14,1.01-0.23c0.37-0.11,0.69-0.32,0.92-0.46
				c0.34-0.26,0.57-0.57,0.57-0.89c-0.03-0.29-0.32-0.52-0.72-0.72c-0.23-0.11-0.55-0.23-0.95-0.34c-0.29-0.06-0.6-0.14-0.98-0.23
				c-0.29-0.03-0.66,0.03-1.01-0.03c-0.32-0.03-0.63-0.11-0.98-0.14c-0.32-0.06-0.63-0.23-0.98-0.26c-0.32-0.03-0.66,0.03-1.01,0
				c-0.34-0.03-0.66-0.06-1.01-0.09c-0.32-0.06-0.66-0.17-0.98-0.2c-0.34-0.03-0.69,0-1.01-0.06c-0.34-0.03-0.66-0.11-1.01-0.17
				c-0.32-0.03-0.66-0.09-0.98-0.14c-0.34-0.06-0.66-0.11-0.98-0.17c-0.34-0.06-0.66-0.11-1.01-0.2c-0.32-0.06-0.63-0.14-0.95-0.23
				c-0.34-0.09-0.66-0.17-0.98-0.26c-0.32-0.11-0.63-0.26-0.92-0.4c-0.32-0.11-0.69-0.11-0.98-0.26c-0.32-0.17-0.52-0.49-0.78-0.66
				c-0.32-0.17-0.6-0.32-0.86-0.52c-0.26-0.23-0.46-0.49-0.66-0.75c-0.2-0.26-0.52-0.49-0.66-0.78c-0.14-0.32-0.2-0.66-0.29-0.98
				c-0.06-0.32,0-0.66,0-1.01c0-0.34,0.03-0.69,0.09-1.01c0.09-0.34,0.26-0.6,0.4-0.92c0.14-0.32,0.32-0.57,0.52-0.83
				c0.2-0.26,0.4-0.52,0.66-0.75c0.23-0.23,0.46-0.49,0.72-0.69c0.29-0.2,0.57-0.34,0.89-0.52c0.29-0.14,0.6-0.29,0.92-0.4
				c0.29-0.14,0.55-0.4,0.86-0.52c0.32-0.11,0.63-0.26,0.95-0.34c0.34-0.11,0.69-0.06,1.03-0.11c0.32-0.09,0.63-0.26,0.98-0.32
				c0.32-0.03,0.66,0.09,1.01,0.03c0.34-0.03,0.66-0.23,1.01-0.26c0.32,0,0.66-0.03,1.01-0.03c0.34,0,0.69,0.14,1.01,0.14
				c0.37,0.03,0.72-0.09,1.03-0.06c0.34,0,0.69,0.17,1.01,0.23c0.34,0.03,0.69,0.03,1.01,0.09c0.34,0.06,0.69,0.14,1.01,0.23
				c0.34,0.06,0.63,0.23,0.95,0.32c0.34,0.09,0.69,0.11,1.01,0.23c0.34,0.11,0.66,0.2,0.98,0.32c0.34,0.11,0.66,0.23,0.92,0.37
				c0.37,0.17,0.63,0.4,0.86,0.55c0.57,0.32,0.86,0.23,0.86-0.03c0-0.32,0.11-0.57,0.2-0.8c0.14-0.26,0.34-0.4,0.57-0.55
				c0.23-0.11,0.46-0.26,0.78-0.26c0.37,0,0.37,0.03,0.72,0.03c0.43,0,0.83,0.14,1.09,0.43c0.26,0.29,0.32,0.69,0.32,1.15
				c0,0.52,0.06,0.52,0.06,1.03c0,0.49,0.06,0.49,0.06,1.01s-0.09,0.52-0.09,1.01c0,0.52,0,0.52,0,1.03c0,0.43-0.03,0.89-0.29,1.18
				c-0.26,0.32-0.83,0.43-1.35,0.43c-0.34,0-0.66-0.14-0.98-0.23c-0.32-0.09-0.6-0.2-0.89-0.37c-0.29-0.11-0.6-0.23-0.89-0.4
				c-0.29-0.17-0.63-0.23-0.92-0.4c-0.29-0.17-0.57-0.32-0.86-0.49c-0.29-0.14-0.55-0.37-0.86-0.52c-0.29-0.11-0.57-0.29-0.89-0.4
				c-0.32-0.11-0.63-0.2-0.98-0.29c-0.29-0.11-0.6-0.2-0.95-0.29c-0.32-0.06-0.63-0.11-0.98-0.17c-0.32-0.06-0.63-0.09-0.98-0.14
				c-0.32-0.03-0.66,0-0.98-0.03c-0.34-0.03-0.66-0.11-1.01-0.11c-0.32-0.03-0.66-0.03-0.98-0.03c-0.34,0-0.66-0.11-1.01-0.09
				c-0.32,0.03-0.66,0.06-0.98,0.11c-0.34,0.03-0.63,0.29-0.95,0.34c-0.34,0.09-0.66,0.14-0.95,0.23c-0.34,0.14-0.66,0.26-0.86,0.43
				c-0.34,0.23-0.52,0.49-0.46,0.8c0.03,0.26,0.32,0.4,0.75,0.57c0.26,0.09,0.55,0.32,0.92,0.37c0.29,0.09,0.63,0.06,0.98,0.11
				c0.32,0.06,0.66,0,1.01,0.06c0.32,0.03,0.63,0.17,0.98,0.23c0.32,0.03,0.63,0.03,0.98,0.06c0.32,0.03,0.63,0.09,0.98,0.11
				c0.32,0.03,0.66-0.06,1.01-0.03c0.32,0.06,0.63,0.17,0.98,0.2c0.32,0.03,0.66-0.03,0.98,0c0.34,0.03,0.66,0.06,1.01,0.11
				c0.32,0.03,0.6,0.26,0.95,0.32c0.32,0.06,0.66-0.03,0.98,0.03c0.34,0.06,0.66,0.06,0.98,0.14c0.34,0.06,0.63,0.32,0.95,0.37
				c0.32,0.09,0.66,0.03,0.98,0.14c0.32,0.09,0.6,0.29,0.92,0.37c0.32,0.11,0.63,0.2,0.92,0.34c0.32,0.11,0.6,0.26,0.89,0.43
				c0.29,0.14,0.55,0.34,0.8,0.55c0.29,0.17,0.63,0.29,0.86,0.49c0.26,0.23,0.43,0.52,0.6,0.78c0.2,0.29,0.4,0.55,0.55,0.86
				c0.11,0.29,0.17,0.6,0.26,0.95c0.06,0.29,0.14,0.63,0.14,0.98C361.63,184.76,361.63,185.1,361.55,185.42z"/>
			<path class="st0" d="M400.06,186.11c0,0.52,0.06,0.52,0.06,1.06c0,0.52-0.11,0.52-0.11,1.03c0,0.55-0.03,0.55-0.03,1.06
				c0,0.43-0.11,0.78-0.4,1.03c-0.26,0.26-0.6,0.34-1.03,0.34c-0.52,0-0.52,0.11-1.01,0.11c-0.49,0-0.49-0.03-1.01-0.03
				c-0.49,0-0.49-0.06-1.01-0.06c-0.49,0-0.49,0-0.98,0c-0.52,0-0.52,0.03-1.01,0.03c-0.49,0-0.49,0.17-1.01,0.17
				c-0.49,0-0.49-0.11-1.01-0.11c-0.49,0-0.49,0.11-0.98,0.11c-0.52,0-0.52-0.03-1.01-0.03s-0.49-0.03-1.01-0.03
				c-0.49,0-0.49-0.11-0.98-0.11c-0.52,0-0.52,0.09-1.01,0.09c-0.52,0-0.52,0-1.01,0s-0.49-0.09-1.01-0.09
				c-0.49,0-0.49,0.09-0.98,0.09c-0.52,0-0.52,0.03-1.01,0.03c-0.49,0-0.49-0.17-1.01-0.17c-0.49,0-0.49,0.17-0.98,0.17
				c-0.52,0-0.52-0.06-1.01-0.06c-0.49,0-0.49,0.03-1.01,0.03c-0.49,0-0.49,0-0.98,0c-0.52,0-0.52,0-1.01,0s-0.49-0.06-1.01-0.06
				c-0.49,0-0.49,0.06-0.98,0.06c-0.52,0-0.52,0-1.01,0s-0.49-0.06-1.01-0.06c-0.49,0-0.49,0.11-1.01,0.11
				c-0.49,0-0.49-0.06-0.98-0.06c-0.46,0-0.78-0.26-1.03-0.52c-0.29-0.26-0.63-0.57-0.63-1.01c0-0.52,0.23-0.52,0.23-1.03
				c0-0.52,0.09-0.83,0.34-1.12c0.26-0.26,0.6-0.55,1.09-0.55c0.37-0.03,0.72,0.06,1.03,0.03c0.4-0.03,0.75,0.06,1.06,0
				c0.4-0.06,0.72-0.23,0.98-0.34c0.43-0.14,0.63-0.32,0.75-0.6c0.14-0.26,0.23-0.6,0.23-1.01c0-0.49,0.06-0.49,0.06-0.98
				c0-0.49-0.09-0.49-0.09-0.98c0-0.52-0.09-0.52-0.09-1.01s-0.06-0.49-0.06-0.98c0-0.49,0.11-0.49,0.11-0.98
				c0-0.52,0.06-0.52,0.06-1.01c0-0.49-0.09-0.49-0.09-0.98c0-0.49,0.11-0.49,0.11-0.98c0-0.4-0.17-0.72-0.32-1.01
				c-0.11-0.26-0.26-0.46-0.69-0.63c-0.26-0.09-0.57-0.23-1.01-0.29c-0.29-0.06-0.66,0.06-1.03,0.03c-0.32-0.03-0.66-0.23-1.06-0.23
				c-0.49,0-0.83-0.09-1.09-0.34c-0.26-0.26-0.37-0.6-0.37-1.09c0-0.55,0.03-0.55,0.03-1.06c0-0.43,0.03-0.86,0.32-1.12
				c0.26-0.26,0.69-0.26,1.15-0.26c0.49,0,0.49,0.03,0.98,0.03s0.49-0.06,1.01-0.06c0.49,0,0.49-0.03,0.98-0.03
				c0.49,0,0.49-0.14,0.98-0.14c0.49,0,0.49-0.03,1.01-0.03c0.49,0,0.49,0.03,0.98,0.03s0.49,0.14,0.98,0.14
				c0.49,0,0.49,0.06,0.98,0.06c0.52,0,0.52-0.11,1.01-0.11s0.49,0.03,0.98,0.03c0.49,0,0.49-0.11,0.98-0.11s0.49,0.06,1.01,0.06
				c0.49,0,0.49,0.09,0.98,0.09c0.49,0,0.49-0.03,0.98-0.03c0.49,0,0.49-0.03,0.98-0.03s0.49,0.06,1.01,0.06
				c0.49,0,0.49-0.09,0.98-0.09c0.49,0,0.49,0,0.98,0c0.49,0,0.49,0,0.98,0c0.49,0,0.49-0.03,1.01-0.03c0.49,0,0.49-0.03,0.98-0.03
				c0.49,0,0.49,0.09,0.98,0.09s0.49-0.11,0.98-0.11c0.52,0,0.52,0.14,1.01,0.14c0.49,0,0.49,0.03,0.98,0.03s0.49-0.09,0.98-0.09
				c0.49,0,0.49-0.03,0.98-0.03c0.52,0,0.52,0.09,1.01,0.09c0.43,0,0.78,0.17,1.03,0.43c0.29,0.29,0.6,0.6,0.6,1.03
				c0,0.55-0.06,0.55-0.06,1.06c0,0.55-0.11,0.55-0.11,1.06c0,0.52,0.14,0.52,0.11,1.06c0,0.52,0,0.52,0,1.06
				c0,0.43-0.14,0.86-0.4,1.15c-0.29,0.26-0.72,0.29-1.15,0.29c-0.52,0-0.52,0.03-1.03,0.03c-0.49,0-0.92-0.03-1.18-0.29
				c-0.29-0.26-0.4-0.69-0.4-1.18c0-0.32,0.03-0.63-0.06-0.89c-0.09-0.29-0.34-0.4-0.66-0.55c-0.23-0.09-0.46-0.2-0.83-0.2
				c-0.52,0-0.52,0.09-1.03,0.09c-0.49,0-0.49-0.2-1.01-0.2c-0.49,0-0.49,0.23-1.01,0.23c-0.52,0-0.52-0.06-1.01-0.06
				c-0.52,0-0.52-0.11-1.01-0.11c-0.52,0-0.52,0-1.01,0c-0.52,0-0.52-0.03-1.03-0.03c-0.49,0-0.49-0.03-1.01-0.03
				c-0.49,0-0.49,0.2-1.01,0.2c-0.49,0-0.49-0.11-1.01-0.11c-0.52,0-0.52-0.09-1.01-0.09c-0.43,0-0.8,0.11-1.06,0.26
				c-0.32,0.17-0.43,0.52-0.57,0.86c-0.09,0.29-0.2,0.6-0.2,1.01c0,0.55-0.09,0.55-0.09,1.12c0,0.55,0.14,1.09,1.18,1.09
				c0.55,0,0.55,0.03,1.09,0.03c0.55,0,0.55-0.09,1.09-0.09s0.55-0.03,1.09-0.03s0.55,0.14,1.09,0.14c0.32,0,0.72-0.03,1.03-0.17
				c0.32-0.14,0.66-0.46,0.66-0.83c0-0.49,0.03-0.86,0.29-1.12c0.29-0.26,0.66-0.32,1.15-0.32c0.52,0,0.52,0.03,1.03,0.03
				c0.46,0,0.78,0.09,1.03,0.37c0.26,0.29,0.57,0.6,0.57,1.06c0,0.52-0.06,0.52-0.06,1.06c0,0.52,0,0.52,0,1.06
				c0,0.52,0.06,0.52,0.06,1.03c0,0.55-0.06,0.55-0.06,1.06c0,0.52-0.09,0.52-0.09,1.06c0,0.43-0.14,0.8-0.4,1.06
				c-0.26,0.29-0.6,0.57-1.06,0.57c-0.52,0-0.52-0.2-1.03-0.2c-0.49,0-0.95,0.03-1.21-0.23c-0.26-0.26-0.34-0.72-0.34-1.21
				c0-0.37-0.29-0.52-0.63-0.66c-0.32-0.14-0.66-0.17-0.95-0.17c-0.55,0-0.55-0.09-1.09-0.09s-0.55-0.03-1.09-0.03
				s-0.55-0.03-1.09-0.03c-0.55,0-0.55-0.09-1.09-0.09c-0.95,0-1.06,0.69-1.06,1.24c0,0.57,0.03,0.57,0.03,1.12
				c0,0.4-0.06,0.72,0,1.01c0.09,0.37,0.23,0.72,0.52,0.89c0.23,0.14,0.57,0.09,1.01,0.09c0.03,0,0.4-0.06,0.98-0.06
				c0.29,0,0.6,0,0.98,0c0.29,0,0.63,0.06,0.98,0.06c0.32,0,0.63,0.03,0.98,0.03c0.32,0,0.63,0.06,0.98,0.06
				c0.32,0,0.66-0.11,0.98-0.11c0.32,0,0.66,0,0.98,0s0.66,0,0.98,0c0.34,0,0.66,0.06,0.98,0.06c0.34,0,0.66,0.09,0.98,0.09
				c0.37,0,0.69-0.17,0.98-0.17c0.6,0,0.49,0.14,0.98,0.14c0.37,0,0.66-0.06,0.89-0.14c0.29-0.14,0.4-0.4,0.49-0.69
				c0.11-0.23,0.14-0.52,0.14-0.86c0-0.46,0.23-0.83,0.49-1.09c0.26-0.26,0.63-0.32,1.12-0.32c0.52,0,0.52-0.2,1.03-0.2
				c0.43,0,0.75,0.32,1.03,0.6c0.26,0.26,0.43,0.57,0.43,1.03C400.03,185.56,400.06,185.56,400.06,186.11z"/>
		</g>
	</g>
	<g>
		<path class="st1" d="M107.03,50.07c-2.79-0.19-5.53-0.17-8.19-0.14c-0.89,0.01-1.77,0.02-2.66,0.02c-0.53,0-1,0.18-1.23,0.29
			c-1.11,0.3-1.8,0.75-2.17,1.39c-0.38,0.66-0.41,1.49-0.12,2.59c0.27,1.36,0.68,2.68,1.18,3.81c1.01,2.27,1.09,4.45,1.09,6.47
			c-0.06,1.49-0.1,3.03-0.13,4.53c-0.03,1.47-0.06,2.99-0.13,4.52c0,0.63,0.01,1.27,0.03,1.93c0.03,1.31,0.06,2.67-0.02,3.99
			c-0.17,1.81-0.09,3.65-0.02,5.43c0.09,2.26,0.19,4.61-0.23,6.84l-0.01,0.75c0,0.89,0.01,1.79,0.03,2.68
			c0.03,1.74,0.06,3.54-0.03,5.33c0,1.16-0.04,2.34-0.08,3.49c-0.06,1.74-0.12,3.53-0.05,5.32c0.3,5.04-0.24,8.81-1.7,11.87
			c-0.24,0.37-0.37,0.8-0.48,1.15c-0.02,0.08-0.05,0.15-0.06,0.2c-0.58,1.52-0.59,2.7-0.04,3.58c0.56,0.9,1.66,1.41,3.35,1.55
			c0.53,0.04,1.04,0.06,1.55,0.06c0.5,0,0.98-0.01,1.46-0.03c0.49-0.01,0.98-0.03,1.49-0.03l0.06,0c0.62-0.06,1.29-0.09,1.94-0.13
			c0.48-0.02,0.98-0.05,1.46-0.08v0.08h0.6c0.41,0,0.83,0.01,1.26,0.03c0.92,0.03,1.88,0.06,2.86-0.03c1.74-0.16,2.58-1.1,2.58-2.89
			c0-0.55-0.09-1.26-0.27-2.16c-0.39-1.8-0.91-3.62-1.4-5.36c-0.97-3.87-1.21-7.11-0.75-10.2c0.45-3.48,0.46-7.09,0.47-10.58
			c0.01-2.43,0.01-4.94,0.17-7.42c0-0.65,0-1.2-0.14-1.91c-0.72-3.3-0.59-6.49-0.45-9.87c0.03-0.68,0.06-1.37,0.08-2.06
			c0.08-2.42,0.29-4.89,0.5-7.28c0.14-1.6,0.29-3.26,0.39-4.89c0.15-1.95,0.45-3.38,0.96-4.63c0.43-0.86,0.69-1.71,0.93-2.53
			c0.44-1.92,0.34-3.24-0.34-4.16C110.13,50.7,108.93,50.21,107.03,50.07z"/>
		<path class="st1" d="M175.99,50.46c-3.62-0.64-8.37-1.25-13.05-0.25c-1.67,0.31-2.8,0.57-3.33,1.4c-0.54,0.85-0.28,1.99,0.19,3.79
			l0.01,0.04c0.07,0.2,0.14,0.37,0.2,0.54c0.05,0.14,0.11,0.27,0.16,0.43c0.14,0.82,0.34,1.67,0.54,2.48
			c0.35,1.46,0.71,2.96,0.71,4.34c-0.13,4.08-0.13,8.15-0.13,12.09c0,0.82-0.12,1.65-0.35,2.47c-0.18,0.44-0.42,0.72-0.72,0.82
			c-0.43,0.15-0.97-0.06-1.38-0.28c-1.84-0.86-3.22-2.4-4.36-3.77c-1.22-1.55-2.51-3.07-3.76-4.55l-0.58-0.69
			c-0.62-0.74-1.26-1.51-1.9-2.16c-0.37-0.49-0.75-0.98-1.12-1.48c-1.27-1.68-2.58-3.42-3.97-5.01c-2.55-2.79-5.2-5.57-7.76-8.25
			L135,52.02c-1.57-1.57-3.63-2.35-5.8-2.21c-0.93,0.06-1.83,0.09-2.71,0.12c-0.95,0.03-1.84,0.06-2.78,0.13
			c-1.36,0.14-2.25,0.57-2.71,1.3c-0.5,0.78-0.49,1.85,0.02,3.35c0.02,0.28,0.14,0.48,0.23,0.64c0.03,0.05,0.05,0.09,0.07,0.12
			c1.32,3.09,1.87,6.4,1.73,10.42c-0.06,2.02-0.1,4.06-0.13,6.04c-0.03,1.99-0.06,4.05-0.13,6.06c0,1.05,0.03,2.11,0.06,3.14
			c0.08,2.79,0.15,5.42-0.3,8.03c-0.31,0.98-0.1,2.04,0.13,2.72c0.79,2.81,0.33,5.49-0.15,8.32l-0.12,0.69l-0.01,0.05
			c-0.03,0.38-0.07,0.76-0.11,1.13c-0.12,1.15-0.24,2.34-0.14,3.55c0.36,3.84,0.27,7.86-0.25,11.96c-0.12,1.16-0.33,2.07-1.03,3
			l-0.03,0.05c-0.39,0.65-0.79,1.31-1.05,1.98c-0.42,0.97-0.4,2,0.03,2.9c0.47,0.96,1.39,1.68,2.51,1.98
			c0.93,0.27,1.88,0.4,2.78,0.4c0,0,0.01,0,0.01,0c0.82,0.05,1.64,0.08,2.48,0.08c2.68,0,5.51-0.28,8.72-0.85l0.01,0
			c0.43-0.09,0.8-0.26,1.15-0.43c0.26-0.12,0.52-0.25,0.83-0.35l0.39-0.13l0.02-0.41c0.14-2.54-0.2-4.64-1.07-6.64
			c-1.24-2.7-1.63-5.54-1.22-8.93c0.29-1.47,0.37-3.03,0.44-4.53c0.02-0.5,0.05-1,0.08-1.53v-7.75c0-0.57-0.03-1.16-0.06-1.78
			c-0.03-0.63-0.07-1.27-0.07-1.89c0.06-2.24,0.16-4.55,0.25-6.79c0.1-2.35,0.2-4.79,0.26-7.21c0-0.7,0.12-1.4,0.35-2.1l0.01-0.04
			c0.07-0.27,0.23-0.46,0.47-0.55c0.31-0.12,0.69-0.07,1.03,0.15c0.81,0.54,1.49,1.14,2.05,1.82c0.8,0.86,1.63,1.76,2.47,2.65
			c0.88,0.95,1.77,1.9,2.6,2.79c0.27,0.32,0.55,0.61,0.82,0.9c0.39,0.4,0.75,0.78,1.03,1.19c1.33,2.43,3.22,4.4,5.05,6.3
			c0.33,0.35,0.67,0.69,0.98,1.03c1.73,1.98,3.52,4.02,4.88,6.37c0.85,1.57,1.37,3,1.58,4.34c0.55,5.81,0.71,12.57-2.21,18.71
			c-0.24,0.37-0.37,0.8-0.48,1.15c-0.02,0.08-0.05,0.15-0.07,0.22l-0.02,0.08c-0.31,1.68,0.64,3.02,2.46,3.48
			c0.47,0.15,1.03,0.15,1.46,0.15c3.92-0.14,7.36,0.02,10.83,0.5c1.14,0.16,2.16-0.06,2.8-0.27c1.58-0.48,2.24-1.55,1.95-3.2
			c-0.12-1.17-0.44-2.23-0.78-3.34l-0.13-0.43c-1.06-3.65-1.51-7.45-1.37-11.63c0.03-0.7,0.07-1.4,0.11-2.1
			c0.14-2.48,0.29-5.04-0.12-7.69c-0.06-0.37-0.01-0.77,0.05-1.19c0.04-0.32,0.09-0.65,0.09-0.97l0.02-0.35
			c0.12-2.96,0.24-5.75,0.24-8.67c0.08-2.13,0.06-4.24,0.03-6.28c-0.01-1.04-0.03-2.09-0.03-3.15c0-2.28,0.03-4.61,0.06-6.86
			c0.03-2.25,0.06-4.58,0.06-6.85c0.11-2.62,0.41-5.67,1.84-8.4c0.42-0.85,0.68-1.66,0.81-2.56c0.21-0.81,0.11-1.61-0.29-2.25
			C177.55,51.06,176.85,50.61,175.99,50.46z"/>
		<path class="st1" d="M242.98,50.46c-3.62-0.64-8.38-1.25-13.05-0.25c-1.67,0.31-2.8,0.57-3.33,1.4c-0.54,0.85-0.28,1.99,0.19,3.79
			l0.01,0.04c0.07,0.2,0.14,0.37,0.2,0.54c0.05,0.14,0.11,0.27,0.16,0.43c0.14,0.82,0.34,1.67,0.54,2.48
			c0.35,1.46,0.71,2.96,0.71,4.34c-0.13,4.08-0.13,8.15-0.13,12.09c0,0.82-0.12,1.65-0.35,2.47c-0.18,0.44-0.42,0.72-0.72,0.82
			c-0.43,0.15-0.97-0.06-1.38-0.28c-1.84-0.86-3.22-2.4-4.36-3.77c-1.22-1.55-2.51-3.07-3.76-4.55l-0.58-0.69
			c-0.62-0.74-1.26-1.51-1.9-2.16c-0.37-0.49-0.75-0.98-1.12-1.48c-1.27-1.68-2.58-3.42-3.97-5.01c-2.55-2.79-5.2-5.57-7.76-8.25
			l-0.39-0.41c-1.57-1.57-3.63-2.35-5.8-2.21c-0.93,0.06-1.83,0.09-2.71,0.12c-0.95,0.03-1.84,0.06-2.78,0.13
			c-1.36,0.14-2.25,0.57-2.71,1.3c-0.5,0.78-0.49,1.85,0.02,3.35c0.02,0.28,0.14,0.48,0.23,0.64c0.03,0.05,0.05,0.09,0.07,0.12
			c1.32,3.09,1.87,6.4,1.73,10.42c-0.06,2.02-0.1,4.06-0.13,6.04c-0.03,1.99-0.06,4.05-0.13,6.06c0,1.05,0.03,2.11,0.06,3.14
			c0.08,2.79,0.15,5.42-0.3,8.03c-0.31,0.98-0.1,2.03,0.13,2.72c0.79,2.81,0.33,5.49-0.15,8.32l-0.12,0.7l-0.01,0.05
			c-0.03,0.38-0.07,0.75-0.11,1.13c-0.12,1.15-0.24,2.34-0.14,3.55c0.36,3.84,0.28,7.86-0.25,11.96c-0.12,1.16-0.33,2.07-1.03,3
			l-0.03,0.05c-0.39,0.65-0.79,1.31-1.05,1.98c-0.42,0.97-0.4,2,0.03,2.9c0.47,0.96,1.39,1.68,2.51,1.98
			c0.93,0.27,1.88,0.4,2.78,0.4c0,0,0.01,0,0.01,0c0.82,0.05,1.64,0.08,2.48,0.08c2.68,0,5.51-0.28,8.72-0.85l0.01,0
			c0.43-0.09,0.8-0.26,1.15-0.43c0.26-0.12,0.52-0.25,0.83-0.35l0.39-0.13l0.02-0.41c0.14-2.54-0.2-4.64-1.07-6.64
			c-1.24-2.7-1.63-5.54-1.22-8.93c0.29-1.47,0.37-3.03,0.44-4.53c0.02-0.5,0.05-1,0.08-1.53v-7.75c0-0.57-0.03-1.16-0.06-1.78
			c-0.03-0.63-0.07-1.27-0.07-1.89c0.06-2.24,0.16-4.55,0.25-6.79c0.1-2.35,0.2-4.79,0.26-7.21c0-0.7,0.12-1.4,0.35-2.1l0.01-0.04
			c0.07-0.27,0.23-0.46,0.47-0.55c0.31-0.12,0.69-0.07,1.03,0.15c0.81,0.54,1.49,1.14,2.05,1.82c0.82,0.88,1.67,1.8,2.52,2.71
			c0.87,0.93,1.73,1.86,2.54,2.73c0.27,0.32,0.55,0.61,0.82,0.9c0.39,0.4,0.75,0.78,1.03,1.19c1.33,2.43,3.22,4.4,5.05,6.3
			c0.33,0.35,0.67,0.69,0.98,1.03c1.73,1.98,3.52,4.02,4.88,6.37c0.85,1.57,1.37,3,1.58,4.34c0.55,5.81,0.71,12.57-2.21,18.71
			c-0.24,0.37-0.37,0.81-0.48,1.16c-0.02,0.08-0.05,0.15-0.07,0.22l-0.02,0.08c-0.31,1.68,0.63,3.02,2.46,3.48
			c0.47,0.15,1.04,0.15,1.46,0.15c3.92-0.14,7.36,0.02,10.83,0.5c1.15,0.16,2.16-0.06,2.8-0.27c1.58-0.48,2.24-1.55,1.95-3.2
			c-0.12-1.17-0.44-2.22-0.78-3.34l-0.13-0.43c-1.06-3.65-1.51-7.45-1.37-11.63c0.03-0.7,0.07-1.4,0.11-2.09
			c0.14-2.48,0.29-5.04-0.12-7.69c-0.06-0.37-0.01-0.77,0.05-1.19c0.04-0.32,0.09-0.65,0.09-0.97l0.02-0.38
			c0.12-2.95,0.24-5.74,0.24-8.65c0.08-2.13,0.06-4.24,0.03-6.28c-0.01-1.04-0.03-2.09-0.03-3.15c0-2.28,0.03-4.61,0.06-6.86
			c0.03-2.25,0.06-4.58,0.06-6.85c0.11-2.62,0.41-5.67,1.84-8.4c0.42-0.85,0.68-1.66,0.81-2.56c0.21-0.82,0.11-1.61-0.29-2.25
			C244.53,51.06,243.84,50.61,242.98,50.46z"/>
		<path class="st1" d="M296.87,111.55c-1.01-0.46-2.26-0.01-3.94,0.86c-1.81,0.97-3.85,1.45-6.07,1.45c-1.66,0-3.38,0.06-5.04,0.13
			c-1.65,0.06-3.36,0.13-5,0.13c-1.12,0-2.12-0.16-2.81-0.46l-0.05-0.02c-2.04-0.68-2.92-1.75-3.15-3.79l-0.02-0.34
			c-0.12-1.76-0.23-3.43-0.23-5.11c-0.12-2.47,0.65-4.55,2.24-6.03c1.02-1.02,2.14-2.01,3.25-2.87l0.04-0.03
			c1.32-1.2,2.92-1.55,4.63-1.01l0.06,0.02c0.31,0.06,0.6,0.13,0.88,0.19c0.29,0.06,0.58,0.13,0.9,0.19l0.08,0.01
			c2.26,0.15,3.26-0.6,3.56-2.71c0.25-2.96,0.37-5.73,0.51-9.07c0-1.21-0.22-2.63-0.65-4.2c-0.45-1.95-1.48-2.68-3.35-2.36
			l-0.09,0.01l-0.08,0.04c-0.1,0.05-0.17,0.07-0.24,0.09c-0.09,0.03-0.2,0.07-0.33,0.13c-2.6,0.62-5.28,1.26-7.92,1.76l-0.05,0.01
			c-1.45,0.41-2.78-0.39-3.33-2.01c-0.12-0.48-0.23-0.93-0.23-1.45c0.06-1.09,0.1-2.23,0.13-3.33c0.03-1.09,0.06-2.21,0.13-3.32
			c0-3.15,1.46-4.61,4.61-4.61c3.35,0,6.51,0,9.82-0.26c2.35-0.12,4.67,0.33,7.11,1.35c0.93,0.4,1.99,0.66,3.01,0.92
			c1.29,0.32,2.35-0.19,2.84-1.33c0.28-0.57,0.42-1.11,0.55-1.65l0.01-0.07c0.41-3.17,0.5-6.25,0.26-9.15l-0.01-0.05
			c-0.3-1.82-1.17-2.73-2.99-3.15c-3.64-0.88-6.79-1.13-9.65-0.77c-1.32,0.24-2.81,0.37-4.21,0.37c-2.33-0.06-4.65-0.16-6.9-0.26
			c-2.15-0.09-4.38-0.19-6.58-0.25h-4.7c-1.89,0-3.85,0-5.81,0.26c-2.36,0.35-3.66,0.95-4.22,1.94c-0.73,1.29-0.07,2.94,0.79,5.02
			c0.03,0.27,0.14,0.46,0.23,0.62c0.03,0.05,0.05,0.09,0.08,0.15c0.81,1.63,1.21,3.41,1.21,5.45c0,0.96,0.06,1.81,0.13,2.63
			c0.06,0.84,0.13,1.7,0.13,2.7c-0.06,3.88-0.06,7.79-0.06,11.58c0,3.77,0,7.67-0.06,11.53c-0.08,0.88-0.01,1.8,0.05,2.68
			c0.04,0.58,0.08,1.13,0.08,1.71c0.13,1.89,0.13,3.81,0.13,5.68c0,1.14-0.07,2.27-0.13,3.36c-0.06,1.06-0.13,2.16-0.12,3.22
			c-0.05,1.07-0.06,2.14-0.07,3.16c-0.02,1.57-0.03,3.06-0.18,4.57c-0.1,1.07-0.44,2.16-0.77,3.22c-0.07,0.24-0.15,0.47-0.22,0.7
			c-0.18,0.41-0.38,0.79-0.6,1.19c-0.22,0.42-0.46,0.85-0.67,1.34c-0.57,1.49-0.56,2.75,0.01,3.75c0.6,1.05,1.78,1.72,3.54,2.02
			c0.57,0.06,1.13,0.09,1.68,0.09c0.88,0,1.71-0.08,2.46-0.23c1.84-0.43,3.32-0.43,4.8,0c0.58,0.14,1.26,0.14,1.78,0.14
			c2.3,0.06,4.61-0.05,6.84-0.15c2.6-0.12,5.3-0.24,8.04-0.11h9.79c0.91,0,1.94,0,3-0.13l0.06-0.01c1.42-0.32,2.45-1.3,2.74-2.62
			l0.01-0.06c0.09-0.71,0.21-1.44,0.33-2.14c0.38-2.3,0.78-4.69,0.17-7.23C298.44,113.35,297.93,112.04,296.87,111.55z"/>
		<path class="st1" d="M365.91,52.1c-0.59-1.15-2.01-1.83-4-1.91c-3.06-0.13-6.17-0.13-9.18-0.13c-1.07,0-2.48,0.45-3.12,2.59
			c-0.37,1.23-0.75,2.51-1.24,3.61c-1.54,3.4-3.48,7.34-6.29,10.82c-0.53,0.72-0.99,1.51-1.43,2.27c-0.43,0.74-0.87,1.5-1.36,2.17
			l-0.05,0.08c-0.09,0.19-0.19,0.39-0.29,0.59c-0.29,0.6-0.59,1.22-0.94,1.76c-0.86,1.26-1.61,1.88-2.29,1.9
			c-0.7,0.01-1.5-0.57-2.45-1.8l-0.05-0.06c-0.34-0.34-0.57-0.69-0.8-1.03c-0.75-1.24-1.57-2.5-2.35-3.72
			c-1.48-2.29-3-4.66-4.24-7.06l-0.43-0.79c-1.36-2.47-2.76-5.02-3.32-7.81c-0.52-2.61-2.27-4.04-4.91-4.04
			c-3.08,0-6.09,0.12-9.41,0.25c-0.2,0-0.38,0.05-0.53,0.08c-0.09,0.02-0.18,0.05-0.24,0.05h-0.08l-0.08,0.02
			c-0.88,0.24-1.48,0.67-1.78,1.28c-0.31,0.63-0.27,1.4,0.1,2.31c0.2,0.6,0.47,1.12,0.76,1.66c0.09,0.18,0.19,0.36,0.29,0.56
			l0.05,0.08c0.95,1.35,1.81,2.74,2.52,4.03c2.91,4.98,5.7,9.36,8.55,13.39c0.4,0.56,0.69,1.12,1,1.71c0.16,0.3,0.32,0.6,0.5,0.92
			c0.66,1.11,1.29,2.23,1.9,3.32c0.77,1.39,1.57,2.82,2.44,4.2c1.06,1.59,1.79,3.26,2.57,5.03c0.49,1.12,0.99,2.27,1.59,3.42
			c0.94,1.89,1.28,3.59,0.96,4.97c-0.36,2.1-0.32,4.22-0.28,6.26c0.03,1.59,0.06,3.24-0.1,4.84c-0.26,2.45-0.26,5.11-0.26,7.73
			c0.11,1.7-0.2,3.26-0.95,4.77c-0.5,1-0.89,1.89-1.3,2.98l-0.02,0.07c-0.32,1.28,0.17,2.43,1.3,3.08l0.08,0.04
			c0.65,0.26,1.33,0.53,2.15,0.67c2.31,0.38,4.77,0.64,7.15,0.89l0.66,0.07v-0.33c0.53-0.01,1.06-0.03,1.59-0.06
			c0.71-0.03,1.45-0.06,2.13-0.06h0.1l0.09-0.03c0.29-0.1,0.47-0.1,0.83-0.1l0.09-0.01c1.37-0.22,2.23-0.67,2.71-1.42
			c0.5-0.8,0.52-1.88,0.07-3.38c-0.23-0.92-0.72-1.87-1.19-2.8c-0.09-0.17-0.17-0.34-0.25-0.48c-0.63-1.38-1.22-2.68-1.22-4.06
			c0.04-1.9,0.07-3.78,0.1-5.66c0.06-3.71,0.11-7.54,0.28-11.36l0-0.07c0.13-2.78,0.26-5.66,1.59-8.08c1.2-2.39,2.76-4.7,4.42-7.15
			c1.27-1.87,2.58-3.81,3.71-5.79c1.06-1.91,2.38-3.73,3.65-5.49c1.78-2.45,3.62-4.99,4.89-7.91l0.02-0.05
			c0.11-0.33,0.2-0.49,0.35-0.64c1.43-1.34,2.33-3.05,3.19-4.69c0.42-0.8,0.86-1.63,1.35-2.41C366.49,54.2,366.3,52.87,365.91,52.1z
			"/>
		<path class="st1" d="M368.98,36.61c0.75,1.29,1.47,2.52,1.85,3.91c0.16,0.49,0.51,0.84,0.98,1c0.18,0.06,0.37,0.09,0.57,0.09
			c0.42,0,0.85-0.14,1.26-0.41c0.4-0.27,0.86-0.57,1.16-1.02c1.62-2.12,3.19-4.21,4.61-6.52c0.6-0.91,0.84-1.95,1.02-2.71
			c0.07-0.29,0.12-0.54,0.19-0.73l0.03-0.08l0-0.09c0.06-1.78-0.75-3.59-2.23-4.96c-1.33-1.23-2.97-1.91-4.32-1.76
			c-2.88,0.46-5.31,2.06-6.48,4.29c-0.74,1.4-1.33,3.68,0.06,6.6C368.08,35.06,368.54,35.85,368.98,36.61z"/>
		<path class="st1" d="M416.26,100.8c-0.23-0.81-0.44-1.66-0.65-2.48c-0.38-1.5-0.77-3.06-1.27-4.55c-0.32-0.97-0.88-1.83-1.43-2.66
			c-0.14-0.22-0.28-0.43-0.4-0.63c-0.25-0.43-0.54-0.79-0.82-1.15c-0.32-0.4-0.63-0.79-0.8-1.2c-1.45-3.69-4.22-6.32-6.89-8.87
			c-1.13-1.09-2.24-2.27-3.3-3.4c-2.16-2.3-4.4-4.69-7.09-6.6c-1.47-0.98-2.05-2.67-1.78-5.16c0.11-0.92,0.56-1.72,1.27-2.25
			c0.68-0.5,1.52-0.7,2.39-0.54c0.91,0.11,1.83,0.45,2.52,0.9c0.77,0.58,1.41,1.34,2.02,2.07c0.14,0.17,0.29,0.34,0.44,0.53
			c1.64,1.79,3.09,2.12,5.13,1.17c1.13-0.47,2.19-1.08,3.22-1.66c0.39-0.22,0.78-0.45,1.17-0.66l0.04-0.02
			c1.57-1.02,2.31-1.88,2.5-2.89c0.17-0.94-0.16-1.92-1.07-3.18c-2.37-3.29-5.27-5.89-8.88-7.95c-2.55-1.27-5.62-2.52-9.09-2.1
			c-1.79,0.12-3.97,0.58-6.14,1.31c-6.55,2.27-10.15,7.11-10.72,14.41c-0.25,4.1,0.99,8.04,3.69,11.73l0.46,0.61
			c3.53,4.68,3.75,4.97,8.92,8.91c0.1,0.09,0.21,0.17,0.31,0.23c0.06,0.04,0.14,0.09,0.18,0.13c0.65,0.61,1.33,1.22,1.99,1.81
			c1.54,1.38,3.14,2.8,4.44,4.37c1.52,1.93,2.78,3.99,4.11,6.18c0.31,0.5,0.61,1.01,0.93,1.51c0.44,0.89,0.69,1.94,0.69,2.93
			c0.07,1.27,0.01,2.57-0.05,3.83c-0.04,0.86-0.08,1.75-0.08,2.63c0,1.22-0.43,2.36-1.25,3.3c-3.44,3.89-6.57,5.51-10.51,5.4
			c-0.42,0-0.85-0.03-1.29-0.06c-0.45-0.03-0.9-0.07-1.34-0.06c-1.89-0.11-3.41-0.95-4.66-2.57c-4.29-5.55-2.58-12.33,1.22-15.9
			c0.21-0.21,0.41-0.4,0.62-0.59c0.43-0.4,0.88-0.82,1.33-1.37c0.72-0.9,0.78-2.1,0.14-2.9c-2.26-3.02-4.56-5.02-7.25-6.31
			c-1.81-0.75-3.56-0.5-5.07,0.73c-4.32,3.57-6.76,7.49-7.47,11.94c-1.2,6.55-0.28,12.68,2.73,18.22c1.56,2.93,3.92,4.99,6.21,6.98
			c0.77,0.67,1.57,1.37,2.3,2.07c0.32,0.32,0.78,0.46,1.2,0.59l0.15,0.05c1.26,0.51,2.57,1.03,3.87,1.42l0.03,0.01
			c0.62,0.15,1.25,0.33,1.86,0.5c1.94,0.54,3.91,1.1,5.97,1.1c1.1,0,2.22-0.16,3.36-0.56c2,0.07,3.82-0.5,5.58-1.06
			c0.56-0.18,1.08-0.34,1.63-0.5c3-0.91,5.54-2.51,7.78-4.87c4.41-4.69,6.67-9.69,6.91-15.31c0-0.61,0-1.18,0.22-1.85l0.02-0.06
			C416.93,104.5,416.64,102.6,416.26,100.8z"/>
		<path class="st1" d="M92.92,21.2l0.15-0.02c0.88-0.22,1.86-0.34,2.81-0.46l0.3-0.04l0.04-0.01c0.87-0.17,1.75-0.32,2.6-0.47
			c1.04-0.18,2.02-0.34,3-0.55c0.99-0.21,1.74-0.69,2.16-1.39c0.44-0.74,0.51-1.7,0.2-2.79l-0.01-0.02
			c-0.04-0.13-0.07-0.28-0.1-0.43c-0.04-0.22-0.08-0.45-0.18-0.66c-1.08-2.27-2.26-4.68-3.87-6.95l-1.59-1.6l-0.06-0.05
			c-1.47-1.15-2.84-1.37-4.2-0.7l-0.04,0.02c-0.39,0.23-0.78,0.42-1.23,0.63c-0.24,0.11-0.5,0.23-0.75,0.36
			c-1.79,0.84-3.74,1.59-5.97,1.47c-0.57,0-1.05,0.07-1.51,0.14c-0.4,0.06-0.77,0.11-1.16,0.11l-0.06,0
			c-3.62,0.37-15.04,0.64-18.79-0.36c-1.45-0.39-3.03-0.53-4.53-0.65c-1.8-0.26-3.5-0.5-5.23-1.12c-1.95-0.65-3.92-1.04-5.89-1.41
			c-0.25-0.06-0.49-0.12-0.74-0.17c-0.74-0.16-1.43-0.32-2.03-0.66L46.2,3.4c-2.48-1.13-5.13-1.77-8.55-2.08
			c-0.38-0.06-0.76-0.11-1.14-0.16c-1.23-0.17-2.38-0.33-3.61-0.71c-2.18-0.66-4.15-0.46-6.22-0.24C25.86,0.3,25,0.39,24.1,0.42
			c-1.51-0.1-3.81-0.08-6.25,0.53c-3.03,0.76-5.36,1.93-7.12,3.57C9.1,6.01,7.32,7.94,6.07,9.56c-1.47,1.96-2.26,4.36-2.4,7.29
			c-0.12,1.19-0.04,2.35,0.26,3.86c0.55,2.78,1.06,5.09,2.08,7.51c0.76,1.6,1.59,2.69,2.47,3.84c0.62,0.81,1.25,1.64,1.88,2.69
			l0.03,0.05c0.88,1.17,1.8,2.18,2.77,3.03c0.63,0.5,1.27,1.05,1.89,1.58c0.62,0.53,1.26,1.07,1.89,1.58
			c1.35,1.35,2.99,2.42,4.98,3.28c1.65,0.75,3.29,0.18,4.09-1.42l0.03-0.08c0.12-0.36,0.26-0.78,0.39-1.31l0.01-0.05
			c0.18-1.08,0.33-2.16,0.48-3.21c0.17-1.22,0.33-2.38,0.54-3.52l0.01-1.12l0-0.05c-0.14-1.89-0.9-3.28-2.38-4.36
			c-0.97-0.85-2.11-1.45-3.21-2.04c-0.27-0.14-0.55-0.29-0.82-0.44l-0.04-0.02c-1.1-0.5-1.82-1.4-2.2-2.75l-0.37-2.59
			c-0.23-3,0.97-5.21,3.5-6.42c3.1-1.68,6.56-2.14,9.99-1.34c2.03,0.51,4.14,1.03,6.25,1.03c0.6,0,1.28,0.13,1.78,0.32
			c1.8,0.85,3.56,1.42,5.43,2.03c0.41,0.13,0.83,0.27,1.25,0.41c1.8,0.56,2.93,1.89,3.27,3.85c0.07,0.44,0.29,0.84,0.49,1.22l0,0
			c0.35,1.88,0.54,4.58,0.2,6.49c-0.7,4.18-0.87,8.17-0.51,11.84c0.11,1.36,0.26,3.06,0.01,4.55l-0.01,0.05
			c-0.05,0.66-0.11,1.32-0.16,1.98c-0.22,2.62-0.45,5.32-0.35,8.01c0.01,0.19,0.02,0.37,0.02,0.56c-0.34,0.3-0.64,0.57-0.91,0.82
			c-1.37,1.24-1.83,1.66-3.91,2.35c-1.73,0.63-3.5,0.53-5.25-0.28c-0.66-0.33-1.34-0.67-2.19-1.01l-0.15-0.05
			c-1.25-0.33-2.49-0.12-3.49,0.58c-0.19,0.13-0.38,0.26-0.58,0.38c-0.54,0.35-1.09,0.71-1.58,1.21c-1.15,1.07-2.16,2.18-3.13,3.26
			l-0.08,0.09c-0.26,0.29-0.52,0.58-0.76,0.83c-0.49,0.5-1.34,1.53-1.64,2.9c-0.47,1.57,0.08,3.19,1.38,4.04
			c0.29,0.19,0.66,0.43,1.12,0.61c1.38,0.62,2.81,1.26,4.21,1.79c4.55,1.75,9.39,1.62,14.2-0.36c0.87-0.35,1.76-0.72,2.6-1.07
			c-0.36,1.96-0.4,4.14-0.13,6.78l0.01,0.07c0.24,1.08,0.24,2.16,0.24,3.3v5.59c0,1.36,0,2.77-0.12,4l-1.14,9.53
			c-0.6,4.81-2.48,9.28-5.6,13.31c-3.09,4.08-7.41,5.97-12.83,5.61c-3.63-0.22-6.86-1.86-10.16-5.16c-0.55-0.55-1.06-1.21-1.6-1.92
			c-0.41-0.53-0.83-1.08-1.27-1.58c-0.48-0.73-0.94-1.42-1.16-2.31c-0.19-0.84-0.42-1.68-0.64-2.5c-0.22-0.81-0.44-1.64-0.62-2.42
			c-0.25-1.52-0.08-2.73,0.56-3.79l1.17-2.33l0.02-0.04c0.72-1.72,0.33-3.48-1.13-5.08l-0.11-0.1c-0.16-0.11-0.34-0.25-0.52-0.41
			c-0.19-0.16-0.39-0.33-0.6-0.47c-1.02-0.83-2.08-1.63-3.11-2.41c-1.03-0.78-2.09-1.58-3.1-2.4l-0.05-0.03
			c-0.24-0.16-0.49-0.27-0.73-0.37c-0.2-0.09-0.39-0.17-0.54-0.27l-0.08-0.05l-0.09-0.03C5,86.2,3.74,86.55,3.08,87.38
			c-0.29,0.39-0.81,1.16-0.99,1.85c-0.38,1.38-0.77,2.82-1.03,4.26c-0.13,0.83-0.26,1.63-0.38,2.43c-0.13,0.79-0.25,1.58-0.38,2.4
			c-0.03,0.22-0.07,0.43-0.11,0.65c-0.13,0.7-0.26,1.43-0.15,2.18c0.25,2.01,0.51,4.09,1.02,6.15c0.41,2.29,1.34,4.5,2.76,6.57
			c0.81,1.16,1.56,2.49,2.24,3.99c0.73,1.47,1.78,2.73,2.5,3.56l0.03,0.04c0.74,0.74,1.5,1.5,2.25,2.38c1.85,2.1,4.18,3.85,6.9,5.22
			c1.12,0.6,2.24,1.15,3.32,1.67c0.52,0.25,1.03,0.5,1.54,0.76c4.22,2.01,5.23,2.24,7.94,2.24c0.36,0,0.75,0,1.19-0.01
			c0.53-0.01,1.12-0.01,1.8-0.01h0.98v-0.13h2.05c1.63,0.12,3.31-0.1,5.17-0.67c0.33-0.11,0.67-0.25,1-0.38
			c0.44-0.18,0.91-0.36,1.4-0.51c3.62-1.07,6.29-3.39,8.64-5.74c2.09-2.09,3.9-4.6,5.69-7.88c1.45-2.5,2.75-5.01,2.75-8.18
			c0-0.67,0.1-1.23,0.34-1.81l0.02-0.04c0.4-1.28,0.66-2.63,0.9-3.93c0.15-0.81,0.31-1.65,0.51-2.47c0.45-1.94,0.49-3.65,0.13-5.23
			c-0.46-1.97-0.38-3.91,0.25-5.94c0.43-1.71,0.51-3.32,0.26-4.95c-0.62-3.48-0.37-7.07-0.12-10.51l0.01-0.12
			c0.37-3.46,0.72-6.74,0.18-10.31c0.25-0.33,0.61-0.62,1.08-0.85l0.07-0.04c0.46-0.27,0.95-0.46,1.48-0.57l0.15-0.04
			c0.45-0.15,0.96-0.24,1.5-0.33c0.32-0.05,0.63-0.11,0.94-0.17c1.63-0.34,3-0.17,4.16,0.51c0.91,0.59,1.96,0.97,3.21,1.16l0.1,0.01
			c1.18,0.08,2.24-0.18,3.17-0.8c0.99-0.51,1.94-1.39,2.63-2.44l3.06-5.13l0.11-0.22c0.09-0.22,0.17-0.47,0.25-0.72l0.01-0.04
			c0.05-0.16,0.11-0.33,0.16-0.47l0.08-0.27c0.27-1.32-0.13-2.58-1.11-3.55l-0.24-0.19c-0.31-0.2-0.69-0.45-1.13-0.58
			c-0.38-0.14-0.75-0.29-1.13-0.44c-1.67-0.66-3.4-1.34-5.53-1.42c-1.04-0.01-2.14-0.05-3.11-0.08c-1.06-0.03-2.15-0.07-3.26-0.08
			c-1.27,0.04-2.48,0.25-3.88,0.68c-0.8,0.21-1.56,0.47-2.23,0.71c0.02-0.31,0.04-0.62,0.06-0.93l0-0.05c0-1.11,0-2.25,0.12-3.24
			c0.23-2.17,0.41-4.77,0-7.5c-0.37-4.62-0.25-9.06,0.37-13.54c0.05-0.23,0.09-0.46,0.14-0.68c0.62-1.11,1.66-1.76,3.09-1.92
			c0.97-0.12,2.07-0.12,3.18,0c3.45,0.3,11.55-0.03,16.9-0.25c1.4-0.06,2.6-0.11,3.43-0.13c0.3,0,0.56-0.04,0.78-0.07
			C92.52,21.23,92.71,21.2,92.92,21.2z"/>
	</g>
</g>
</svg>
